<svg width="29" height="45" viewBox="0 0 29 45" fill="none" xmlns="http://www.w3.org/2000/svg">
<path d="M22.2472 13.9046C22.2472 9.42455 18.6153 5.79272 14.1352 5.79272C9.65514 5.79272 6.02331 9.42455 6.02331 13.9046C6.02331 18.3847 9.65514 22.0166 14.1352 22.0166V27.4245C6.66841 27.4245 0.615356 21.3715 0.615356 13.9046C0.615356 6.43782 6.66841 0.384766 14.1352 0.384766C21.6021 0.384766 27.6551 6.43782 27.6551 13.9046C27.6551 21.3715 21.6021 27.4245 14.1352 27.4245V22.0166C18.6153 22.0166 22.2472 18.3847 22.2472 13.9046Z" fill="#87B6BA"/>
<path d="M6.19845 42.3691L6.10876 42.5963C5.60469 43.6965 4.27973 44.2445 3.02965 43.8278C1.77958 43.4111 1.04842 42.1777 1.30526 40.9951L1.36981 40.7596L7.40561 22.6522L12.2343 24.2617L6.19845 42.3691Z" fill="#87B6BA"/>
<path d="M23.0418 42.3691L23.1315 42.5963C23.6355 43.6965 24.9605 44.2445 26.2106 43.8278C27.4607 43.4111 28.1918 42.1777 27.935 40.9951L27.8704 40.7596L21.8346 22.6522L17.006 24.2617L23.0418 42.3691Z" fill="#87B6BA"/>
</svg>
