<svg width="220" height="40" viewBox="0 0 220 40" fill="none" xmlns="http://www.w3.org/2000/svg">
<rect x="2.5" y="2.5" width="215" height="35" rx="17.5" fill="white" stroke="#98BA87" stroke-width="5"/>
<path d="M42.6 15.5C42.6 12.6833 40.3167 10.4 37.5 10.4C34.6833 10.4 32.4 12.6833 32.4 15.5C32.4 18.3167 34.6833 20.6 37.5 20.6V24C32.8056 24 29 20.1944 29 15.5C29 10.8056 32.8056 7 37.5 7C42.1944 7 46 10.8056 46 15.5C46 20.1944 42.1944 24 37.5 24V20.6C40.3167 20.6 42.6 18.3167 42.6 15.5Z" fill="#98BA87"/>
<path d="M32.5101 33.3959L32.4537 33.5387C32.1368 34.2304 31.3038 34.575 30.5178 34.313C29.7319 34.051 29.2722 33.2756 29.4337 32.5321L29.4743 32.384L33.269 20.9998L36.3048 22.0117L32.5101 33.3959Z" fill="#98BA87"/>
<path d="M43.0995 33.3959L43.1559 33.5387C43.4728 34.2304 44.3058 34.575 45.0918 34.313C45.8777 34.051 46.3374 33.2756 46.1759 32.5321L46.1353 32.384L42.3406 20.9998L39.3048 22.0117L43.0995 33.3959Z" fill="#98BA87"/>
<path d="M35.6 15.5C35.6 12.6833 33.3167 10.4 30.5 10.4C27.6833 10.4 25.4 12.6833 25.4 15.5C25.4 18.3167 27.6833 20.6 30.5 20.6V24C25.8056 24 22 20.1944 22 15.5C22 10.8056 25.8056 7 30.5 7C35.1944 7 39 10.8056 39 15.5C39 20.1944 35.1944 24 30.5 24V20.6C33.3167 20.6 35.6 18.3167 35.6 15.5Z" fill="white"/>
<path d="M25.5101 33.3959L25.4537 33.5387C25.1368 34.2304 24.3038 34.575 23.5178 34.313C22.7319 34.051 22.2722 33.2756 22.4337 32.5321L22.4743 32.384L26.269 20.9998L29.3048 22.0117L25.5101 33.3959Z" fill="white"/>
<path d="M36.0995 33.3959L36.1559 33.5387C36.4728 34.2304 37.3058 34.575 38.0918 34.313C38.8777 34.051 39.3374 33.2756 39.1759 32.5321L39.1353 32.384L35.3406 20.9998L32.3048 22.0117L36.0995 33.3959Z" fill="white"/>
<rect x="23" y="9" width="12" height="26" fill="white"/>
<path d="M31.6 15.5C31.6 12.6833 29.3167 10.4 26.5 10.4C23.6833 10.4 21.4 12.6833 21.4 15.5C21.4 18.3167 23.6833 20.6 26.5 20.6V24C21.8056 24 18 20.1944 18 15.5C18 10.8056 21.8056 7 26.5 7C31.1944 7 35 10.8056 35 15.5C35 20.1944 31.1944 24 26.5 24V20.6C29.3167 20.6 31.6 18.3167 31.6 15.5Z" fill="#98BA87"/>
<path d="M21.5101 33.3959L21.4537 33.5387C21.1368 34.2304 20.3038 34.575 19.5178 34.313C18.7319 34.051 18.2722 33.2756 18.4337 32.5321L18.4743 32.384L22.269 20.9998L25.3048 22.0117L21.5101 33.3959Z" fill="#98BA87"/>
<path d="M32.0995 33.3959L32.1559 33.5387C32.4728 34.2304 33.3058 34.575 34.0918 34.313C34.8777 34.051 35.3374 33.2756 35.1759 32.5321L35.1353 32.384L31.3406 20.9998L28.3048 22.0117L32.0995 33.3959Z" fill="#98BA87"/>
</svg>
