<svg width="44" height="33" viewBox="0 0 44 33" fill="none" xmlns="http://www.w3.org/2000/svg">
<path d="M40.0172 25.7529C41.6643 25.7529 42.9996 27.0882 42.9996 28.7354C42.9996 30.3825 41.6643 31.7178 40.0172 31.7178H4.33459C2.68748 31.7178 1.35219 30.3825 1.35217 28.7354C1.35217 27.0882 2.68747 25.7529 4.33459 25.7529H40.0172Z" fill="#A8EAF0" stroke="#4F4936" stroke-width="2" stroke-linecap="round" stroke-linejoin="round"/>
<path d="M39.8411 13.0752C41.4882 13.0752 42.8235 14.4105 42.8235 16.0576C42.8235 17.7047 41.4882 19.04 39.8411 19.04H4.15845C2.51133 19.04 1.17604 17.7047 1.17603 16.0576C1.17603 14.4105 2.51132 13.0752 4.15845 13.0752H39.8411Z" fill="#A8EAF0" stroke="#4F4936" stroke-width="2" stroke-linecap="round" stroke-linejoin="round"/>
<path d="M39.665 1C41.3122 1 42.6475 2.33529 42.6475 3.98242C42.6474 5.62954 41.3122 6.96484 39.665 6.96484H3.98242C2.3353 6.96484 1.00002 5.62954 1 3.98242C1 2.33529 2.33529 1 3.98242 1H39.665Z" fill="#A8EAF0" stroke="#4F4936" stroke-width="2" stroke-linecap="round" stroke-linejoin="round"/>
</svg>
