<svg width="52" height="41" viewBox="0 0 52 41" fill="none" xmlns="http://www.w3.org/2000/svg">
<g filter="url(#filter0_d_636_488)">
<path d="M44.0172 25.7529C45.6644 25.7529 46.9997 27.0882 46.9997 28.7354C46.9996 30.3825 45.6644 31.7178 44.0172 31.7178H8.33463C6.68751 31.7178 5.35222 30.3825 5.3522 28.7354C5.3522 27.0882 6.6875 25.7529 8.33463 25.7529H44.0172Z" fill="#A8EAF0" stroke="#4F4936" stroke-width="2" stroke-linecap="round" stroke-linejoin="round"/>
<path d="M43.8411 13.0752C45.4882 13.0752 46.8235 14.4105 46.8235 16.0576C46.8235 17.7047 45.4882 19.04 43.8411 19.04H8.15845C6.51133 19.04 5.17604 17.7047 5.17603 16.0576C5.17603 14.4105 6.51132 13.0752 8.15845 13.0752H43.8411Z" fill="#A8EAF0" stroke="#4F4936" stroke-width="2" stroke-linecap="round" stroke-linejoin="round"/>
<path d="M43.665 1C45.3122 1 46.6475 2.33529 46.6475 3.98242C46.6474 5.62954 45.3122 6.96484 43.665 6.96484H7.98242C6.3353 6.96484 5.00002 5.62954 5 3.98242C5 2.33529 6.33529 1 7.98242 1H43.665Z" fill="#A8EAF0" stroke="#4F4936" stroke-width="2" stroke-linecap="round" stroke-linejoin="round"/>
</g>
<defs>
<filter id="filter0_d_636_488" x="0" y="0" width="52" height="40.7178" filterUnits="userSpaceOnUse" color-interpolation-filters="sRGB">
<feFlood flood-opacity="0" result="BackgroundImageFix"/>
<feColorMatrix in="SourceAlpha" type="matrix" values="0 0 0 0 0 0 0 0 0 0 0 0 0 0 0 0 0 0 127 0" result="hardAlpha"/>
<feOffset dy="4"/>
<feGaussianBlur stdDeviation="2"/>
<feComposite in2="hardAlpha" operator="out"/>
<feColorMatrix type="matrix" values="0 0 0 0 0 0 0 0 0 0 0 0 0 0 0 0 0 0 0.25 0"/>
<feBlend mode="normal" in2="BackgroundImageFix" result="effect1_dropShadow_636_488"/>
<feBlend mode="normal" in="SourceGraphic" in2="effect1_dropShadow_636_488" result="shape"/>
</filter>
</defs>
</svg>
