<svg width="232" height="52" viewBox="0 0 232 52" fill="none" xmlns="http://www.w3.org/2000/svg">
<g filter="url(#filter0_d_646_907)">
<rect x="11" y="11" width="210" height="30" rx="15" fill="white"/>
<rect x="8.5" y="8.5" width="215" height="35" rx="17.5" stroke="#87B6BA" stroke-width="5"/>
</g>
<path d="M36.6 22.5C36.6 19.6833 34.3167 17.4 31.5 17.4C28.6833 17.4 26.4 19.6833 26.4 22.5C26.4 25.3167 28.6833 27.6 31.5 27.6V31C26.8056 31 23 27.1944 23 22.5C23 17.8056 26.8056 14 31.5 14C36.1944 14 40 17.8056 40 22.5C40 27.1944 36.1944 31 31.5 31V27.6C34.3167 27.6 36.6 25.3167 36.6 22.5Z" fill="#87B6BA"/>
<path d="M26.5101 40.3959L26.4537 40.5387C26.1368 41.2304 25.3038 41.575 24.5179 41.313C23.732 41.051 23.2723 40.2756 23.4338 39.5321L23.4744 39.384L27.2691 27.9998L30.3049 29.0117L26.5101 40.3959Z" fill="#87B6BA"/>
<path d="M37.0996 40.3959L37.156 40.5387C37.4729 41.2304 38.3059 41.575 39.0918 41.313C39.8778 41.051 40.3375 40.2756 40.176 39.5321L40.1354 39.384L36.3407 27.9998L33.3049 29.0117L37.0996 40.3959Z" fill="#87B6BA"/>
<defs>
<filter id="filter0_d_646_907" x="0" y="0" width="232" height="52" filterUnits="userSpaceOnUse" color-interpolation-filters="sRGB">
<feFlood flood-opacity="0" result="BackgroundImageFix"/>
<feColorMatrix in="SourceAlpha" type="matrix" values="0 0 0 0 0 0 0 0 0 0 0 0 0 0 0 0 0 0 127 0" result="hardAlpha"/>
<feMorphology radius="1" operator="dilate" in="SourceAlpha" result="effect1_dropShadow_646_907"/>
<feOffset/>
<feGaussianBlur stdDeviation="2.5"/>
<feComposite in2="hardAlpha" operator="out"/>
<feColorMatrix type="matrix" values="0 0 0 0 0 0 0 0 0 0 0 0 0 0 0 0 0 0 0.25 0"/>
<feBlend mode="normal" in2="BackgroundImageFix" result="effect1_dropShadow_646_907"/>
<feBlend mode="normal" in="SourceGraphic" in2="effect1_dropShadow_646_907" result="shape"/>
</filter>
</defs>
</svg>
