<svg width="38" height="38" viewBox="0 0 38 38" fill="none" xmlns="http://www.w3.org/2000/svg">
<mask id="path-1-outside-1_657_1194" maskUnits="userSpaceOnUse" x="0" y="0" width="38" height="38" fill="black">
<rect fill="white" width="38" height="38"/>
<path d="M17.6592 2.47656C18.4937 1.79599 19.724 1.84438 20.502 2.62207C21.2799 3.40001 21.3281 4.6302 20.6475 5.46484L20.502 5.62695L9.25488 16.875H33.875C35.0485 16.875 35.9999 17.8265 36 19C36 20.1736 35.0486 21.125 33.875 21.125H9.25488L20.502 32.3721L20.6475 32.5342C21.3282 33.3688 21.2799 34.599 20.502 35.377C19.724 36.1548 18.4938 36.2032 17.6592 35.5225L17.4971 35.377L2.63184 20.5117C2.57837 20.4589 2.52812 20.4029 2.48047 20.3447C2.46643 20.3276 2.45385 20.3094 2.44043 20.292C2.41104 20.2537 2.38225 20.2151 2.35547 20.1748C2.34075 20.1527 2.32728 20.1299 2.31348 20.1074C2.29427 20.0761 2.27443 20.0451 2.25684 20.0127L2.24316 19.9873C2.22992 19.9621 2.21919 19.9358 2.20703 19.9102C2.19148 19.8774 2.17503 19.8451 2.16113 19.8115C2.14908 19.7823 2.13961 19.7523 2.12891 19.7227C2.11565 19.686 2.10111 19.6498 2.08984 19.6123C2.08414 19.5933 2.08035 19.5738 2.0752 19.5547C2.02745 19.3778 2 19.192 2 19C2.00001 18.8886 2.01082 18.7796 2.02734 18.6729C2.03178 18.6443 2.03444 18.6153 2.04004 18.5869C2.04786 18.5472 2.05934 18.5086 2.06934 18.4697C2.07678 18.4408 2.08312 18.4115 2.0918 18.3828C2.10082 18.3531 2.1118 18.3241 2.12207 18.2949C2.13525 18.2574 2.14773 18.2195 2.16309 18.1826C2.17275 18.1595 2.18388 18.137 2.19434 18.1143C2.21285 18.0739 2.23175 18.0335 2.25293 17.9941C2.26512 17.9715 2.27901 17.9499 2.29199 17.9277C2.31334 17.8913 2.3347 17.8547 2.3584 17.8193C2.37254 17.7982 2.38845 17.7784 2.40332 17.7578C2.46892 17.6671 2.54039 17.5788 2.62207 17.4971L17.4971 2.62207L17.6592 2.47656Z"/>
</mask>
<path d="M17.6592 2.47656C18.4937 1.79599 19.724 1.84438 20.502 2.62207C21.2799 3.40001 21.3281 4.6302 20.6475 5.46484L20.502 5.62695L9.25488 16.875H33.875C35.0485 16.875 35.9999 17.8265 36 19C36 20.1736 35.0486 21.125 33.875 21.125H9.25488L20.502 32.3721L20.6475 32.5342C21.3282 33.3688 21.2799 34.599 20.502 35.377C19.724 36.1548 18.4938 36.2032 17.6592 35.5225L17.4971 35.377L2.63184 20.5117C2.57837 20.4589 2.52812 20.4029 2.48047 20.3447C2.46643 20.3276 2.45385 20.3094 2.44043 20.292C2.41104 20.2537 2.38225 20.2151 2.35547 20.1748C2.34075 20.1527 2.32728 20.1299 2.31348 20.1074C2.29427 20.0761 2.27443 20.0451 2.25684 20.0127L2.24316 19.9873C2.22992 19.9621 2.21919 19.9358 2.20703 19.9102C2.19148 19.8774 2.17503 19.8451 2.16113 19.8115C2.14908 19.7823 2.13961 19.7523 2.12891 19.7227C2.11565 19.686 2.10111 19.6498 2.08984 19.6123C2.08414 19.5933 2.08035 19.5738 2.0752 19.5547C2.02745 19.3778 2 19.192 2 19C2.00001 18.8886 2.01082 18.7796 2.02734 18.6729C2.03178 18.6443 2.03444 18.6153 2.04004 18.5869C2.04786 18.5472 2.05934 18.5086 2.06934 18.4697C2.07678 18.4408 2.08312 18.4115 2.0918 18.3828C2.10082 18.3531 2.1118 18.3241 2.12207 18.2949C2.13525 18.2574 2.14773 18.2195 2.16309 18.1826C2.17275 18.1595 2.18388 18.137 2.19434 18.1143C2.21285 18.0739 2.23175 18.0335 2.25293 17.9941C2.26512 17.9715 2.27901 17.9499 2.29199 17.9277C2.31334 17.8913 2.3347 17.8547 2.3584 17.8193C2.37254 17.7982 2.38845 17.7784 2.40332 17.7578C2.46892 17.6671 2.54039 17.5788 2.62207 17.4971L17.4971 2.62207L17.6592 2.47656Z" fill="#A8EAF0"/>
<path d="M17.6592 2.47656L16.3952 0.926611C16.3707 0.946567 16.3467 0.9671 16.3232 0.988192L17.6592 2.47656ZM20.502 2.62207L21.9162 1.20786L21.9159 1.2076L20.502 2.62207ZM20.6475 5.46484L22.1358 6.80079C22.1569 6.77727 22.1775 6.75326 22.1975 6.72877L20.6475 5.46484ZM20.502 5.62695L21.9162 7.04111C21.9416 7.01571 21.9663 6.98963 21.9903 6.9629L20.502 5.62695ZM9.25488 16.875L7.84061 15.4608C7.26865 16.0329 7.09757 16.8931 7.40714 17.6404C7.71671 18.3877 8.44597 18.875 9.25488 18.875V16.875ZM33.875 16.875V14.875V16.875ZM36 19H38V18.9998L36 19ZM33.875 21.125V23.125V21.125ZM9.25488 21.125V19.125C8.44596 19.125 7.71669 19.6123 7.40712 20.3596C7.09756 21.107 7.26867 21.9672 7.84067 22.5392L9.25488 21.125ZM20.502 32.3721L21.9903 31.0361C21.9663 31.0094 21.9416 30.9833 21.9162 30.9579L20.502 32.3721ZM20.6475 32.5342L22.1973 31.2701C22.1774 31.2457 22.1569 31.2217 22.1358 31.1982L20.6475 32.5342ZM20.502 35.377L21.9161 36.7913L21.9162 36.7912L20.502 35.377ZM17.6592 35.5225L16.3232 37.0108C16.3467 37.0319 16.3707 37.0524 16.3951 37.0723L17.6592 35.5225ZM17.4971 35.377L16.0829 36.7912C16.1083 36.8166 16.1344 36.8413 16.1611 36.8653L17.4971 35.377ZM2.63184 20.5117L4.04608 19.0975L4.03743 19.0889L2.63184 20.5117ZM2.48047 20.3447L4.0281 19.0779L4.02701 19.0766L2.48047 20.3447ZM2.44043 20.292L0.854242 21.5102L0.855201 21.5114L2.44043 20.292ZM2.35547 20.1748L4.02074 19.0672L4.02029 19.0665L2.35547 20.1748ZM2.31348 20.1074L0.607992 21.1521L0.60815 21.1523L2.31348 20.1074ZM2.25684 20.0127L0.495882 20.9609L0.499333 20.9673L2.25684 20.0127ZM2.24316 19.9873L0.472597 20.9174C0.475774 20.9235 0.478983 20.9295 0.482222 20.9355L2.24316 19.9873ZM2.20703 19.9102L4.01374 19.0524L4.01338 19.0516L2.20703 19.9102ZM2.16113 19.8115L0.312591 20.575L0.31297 20.5759L2.16113 19.8115ZM2.12891 19.7227L4.00976 19.0427L4.00947 19.0419L2.12891 19.7227ZM2.08984 19.6123L0.174265 20.1872L0.17438 20.1876L2.08984 19.6123ZM2.0752 19.5547L4.00614 19.0337L4.00612 19.0336L2.0752 19.5547ZM2 19L0 18.9998V19H2ZM2.02734 18.6729L0.0509484 18.3665L0.0508772 18.3669L2.02734 18.6729ZM2.04004 18.5869L0.0777864 18.2002L0.07778 18.2002L2.04004 18.5869ZM2.06934 18.4697L4.00625 18.9681L4.00646 18.9673L2.06934 18.4697ZM2.0918 18.3828L0.17786 17.8024L0.177476 17.8037L2.0918 18.3828ZM2.12207 18.2949L4.00855 18.9592L4.00911 18.9576L2.12207 18.2949ZM2.16309 18.1826L0.317278 17.4126L0.316562 17.4143L2.16309 18.1826ZM2.19434 18.1143L4.01158 18.9495L4.01231 18.9479L2.19434 18.1143ZM2.25293 17.9941L0.492031 17.0459L0.491445 17.0469L2.25293 17.9941ZM2.29199 17.9277L4.01729 18.9393L4.01768 18.9387L2.29199 17.9277ZM2.3584 17.8193L4.02009 18.9323L4.02013 18.9323L2.3584 17.8193ZM2.40332 17.7578L0.782773 16.5857L0.782454 16.5862L2.40332 17.7578ZM2.62207 17.4971L1.20786 16.0829L1.20775 16.083L2.62207 17.4971ZM17.4971 2.62207L16.1611 1.1337C16.1344 1.15771 16.1083 1.18244 16.0829 1.20786L17.4971 2.62207ZM17.6592 2.47656L18.9232 4.02651C18.9447 4.00893 18.9727 3.99859 19.0067 4.00021C19.0382 4.00171 19.0642 4.01274 19.088 4.03654L20.502 2.62207L21.9159 1.2076C20.4047 -0.303107 18.0167 -0.395682 16.3952 0.926611L17.6592 2.47656ZM20.502 2.62207L19.0877 4.03628C19.1115 4.06003 19.1224 4.08585 19.1239 4.11719C19.1255 4.15101 19.1152 4.17914 19.0975 4.20092L20.6475 5.46484L22.1975 6.72877C23.5194 5.10756 23.4277 2.71944 21.9162 1.20786L20.502 2.62207ZM20.6475 5.46484L19.1591 4.1289L19.0136 4.29101L20.502 5.62695L21.9903 6.9629L22.1358 6.80079L20.6475 5.46484ZM20.502 5.62695L19.0877 4.2128L7.84061 15.4608L9.25488 16.875L10.6692 18.2892L21.9162 7.04111L20.502 5.62695ZM9.25488 16.875V18.875H33.875V16.875V14.875H9.25488V16.875ZM33.875 16.875V18.875C33.9438 18.875 34 18.9309 34 19.0002L36 19L38 18.9998C37.9998 16.722 36.1533 14.875 33.875 14.875V16.875ZM36 19H34C34 19.069 33.944 19.125 33.875 19.125V21.125V23.125C36.1532 23.125 38 21.2782 38 19H36ZM33.875 21.125V19.125H9.25488V21.125V23.125H33.875V21.125ZM9.25488 21.125L7.84067 22.5392L19.0877 33.7863L20.502 32.3721L21.9162 30.9579L10.6691 19.7108L9.25488 21.125ZM20.502 32.3721L19.0136 33.708L19.1591 33.8701L20.6475 32.5342L22.1358 31.1982L21.9903 31.0361L20.502 32.3721ZM20.6475 32.5342L19.0976 33.7983C19.1153 33.82 19.1256 33.8481 19.124 33.8818C19.1225 33.913 19.1116 33.9389 19.0877 33.9627L20.502 35.377L21.9162 36.7912C23.4277 35.2797 23.5198 32.8915 22.1973 31.2701L20.6475 32.5342ZM20.502 35.377L19.0878 33.9626C19.064 33.9865 19.038 33.9975 19.0067 33.9989C18.9729 34.0005 18.9449 33.9903 18.9233 33.9726L17.6592 35.5225L16.3951 37.0723C18.0166 38.3948 20.4047 38.3024 21.9161 36.7913L20.502 35.377ZM17.6592 35.5225L18.9951 34.0341L18.833 33.8886L17.4971 35.377L16.1611 36.8653L16.3232 37.0108L17.6592 35.5225ZM17.4971 35.377L18.9113 33.9627L4.04605 19.0975L2.63184 20.5117L1.21762 21.9259L16.0829 36.7912L17.4971 35.377ZM2.63184 20.5117L4.03743 19.0889C4.04049 19.092 4.03734 19.0892 4.0281 19.0779L2.48047 20.3447L0.932842 21.6116C1.0189 21.7167 1.11625 21.8258 1.22625 21.9345L2.63184 20.5117ZM2.48047 20.3447L4.02701 19.0766C4.0404 19.0929 4.05067 19.1061 4.05693 19.1143C4.06296 19.1221 4.06686 19.1274 4.06626 19.1266C4.06595 19.1262 4.06549 19.1255 4.06355 19.1229C4.06202 19.1208 4.05912 19.1169 4.05595 19.1127C4.04964 19.1042 4.03882 19.0896 4.02566 19.0725L2.44043 20.292L0.855201 21.5114C0.851814 21.507 0.84917 21.5035 0.847486 21.5013C0.845828 21.4991 0.844805 21.4977 0.844801 21.4977C0.844782 21.4977 0.844919 21.4979 0.845309 21.4984C0.845725 21.499 0.846216 21.4996 0.847039 21.5007C0.848376 21.5026 0.8512 21.5064 0.854173 21.5104C0.864794 21.5247 0.89498 21.5654 0.933925 21.6129L2.48047 20.3447ZM2.44043 20.292L4.02662 19.0738C4.01753 19.062 4.01363 19.0567 4.01242 19.055C4.01139 19.0536 4.01473 19.0581 4.02074 19.0672L2.35547 20.1748L0.690195 21.2824C0.754239 21.3787 0.815012 21.4591 0.854242 21.5102L2.44043 20.292ZM2.35547 20.1748L4.02029 19.0665C4.02623 19.0754 4.03073 19.0824 4.0335 19.0868C4.03622 19.0911 4.03774 19.0936 4.03746 19.0931C4.03699 19.0923 4.03595 19.0906 4.03255 19.085C4.03116 19.0828 4.02891 19.0791 4.02679 19.0756C4.02454 19.0719 4.02181 19.0674 4.0188 19.0625L2.31348 20.1074L0.60815 21.1523C0.609451 21.1545 0.610792 21.1567 0.615033 21.1636C0.6185 21.1693 0.624336 21.1789 0.630798 21.1894C0.643651 21.2103 0.66462 21.244 0.690648 21.2831L2.35547 20.1748ZM2.31348 20.1074L4.01896 19.0628C4.01486 19.0561 4.0111 19.05 4.00799 19.0449C4.00509 19.0402 4.0019 19.0351 4.00001 19.032C3.9953 19.0244 3.99382 19.022 3.99316 19.0209C3.99274 19.0202 3.99478 19.0235 3.99824 19.0295C4.00175 19.0355 4.00738 19.0453 4.01434 19.0581L2.25684 20.0127L0.499333 20.9673C0.530179 21.024 0.558275 21.071 0.575948 21.1C0.584847 21.1146 0.593031 21.1279 0.597991 21.1359C0.604036 21.1457 0.606009 21.1488 0.607992 21.1521L2.31348 20.1074ZM2.25684 20.0127L4.01778 19.0645L4.00411 19.0391L2.24316 19.9873L0.482222 20.9355L0.495894 20.9609L2.25684 20.0127ZM2.24316 19.9873L4.01373 19.0572C4.02519 19.079 4.03374 19.0965 4.03891 19.1074C4.04391 19.1179 4.04702 19.1248 4.04656 19.1238C4.04634 19.1233 4.04591 19.1223 4.04439 19.119C4.0432 19.1163 4.0408 19.111 4.03829 19.1054C4.03565 19.0996 4.03216 19.0919 4.02815 19.0832C4.02411 19.0744 4.01925 19.064 4.01374 19.0524L2.20703 19.9102L0.400323 20.7679C0.395656 20.7581 0.392808 20.7518 0.393602 20.7535C0.394015 20.7544 0.394523 20.7556 0.396244 20.7594C0.397633 20.7625 0.400113 20.768 0.402826 20.774C0.412567 20.7955 0.437967 20.8515 0.472597 20.9174L2.24316 19.9873ZM2.20703 19.9102L4.01338 19.0516C4.00953 19.0435 4.006 19.0362 4.00307 19.0301C4.0002 19.0241 3.99748 19.0185 3.99557 19.0145C3.99341 19.0101 3.99214 19.0075 3.99095 19.005C3.98985 19.0027 3.98936 19.0017 3.98922 19.0014C3.98886 19.0006 3.99089 19.0049 3.99418 19.0121C3.99753 19.0195 4.00286 19.0316 4.0093 19.0471L2.16113 19.8115L0.31297 20.5759C0.339086 20.6391 0.363448 20.691 0.377709 20.721C0.384807 20.7359 0.391602 20.7499 0.394942 20.7568C0.396975 20.761 0.398197 20.7635 0.399262 20.7657C0.399745 20.7667 0.400091 20.7675 0.400333 20.768C0.400452 20.7682 0.400539 20.7684 0.400598 20.7685C0.400657 20.7687 0.400684 20.7687 0.400683 20.7687L2.20703 19.9102ZM2.16113 19.8115L4.00967 19.048C4.01755 19.0671 4.02333 19.0823 4.02682 19.0917C4.03022 19.1008 4.03222 19.1065 4.0319 19.1056C4.03178 19.1053 4.03139 19.1042 4.03039 19.1013C4.02987 19.0998 4.02938 19.0984 4.02865 19.0962C4.02798 19.0943 4.02714 19.0919 4.02625 19.0893C4.02447 19.0842 4.02211 19.0774 4.01942 19.0698C4.01671 19.0621 4.01345 19.0529 4.00976 19.0427L2.12891 19.7227L0.24805 20.4026C0.246254 20.3977 0.245481 20.3954 0.247273 20.4005C0.247679 20.4017 0.253159 20.4176 0.257117 20.4289C0.266251 20.4549 0.285734 20.51 0.312591 20.575L2.16113 19.8115ZM2.12891 19.7227L4.00947 19.0419C4.00589 19.032 4.00261 19.0231 3.99987 19.0156C3.99718 19.0083 3.99467 19.0016 3.99287 18.9968C3.99078 18.9912 3.98973 18.9884 3.98856 18.9852C3.98753 18.9824 3.98709 18.9812 3.98697 18.9809C3.98665 18.9801 3.9886 18.9853 3.99163 18.9942C3.99474 19.0033 3.99961 19.018 4.00531 19.037L2.08984 19.6123L0.17438 20.1876C0.196434 20.2611 0.218116 20.3214 0.23029 20.3547C0.236271 20.3711 0.24227 20.3871 0.244727 20.3937C0.248132 20.4029 0.248572 20.4041 0.248345 20.4035L2.12891 19.7227ZM2.08984 19.6123L4.00542 19.0374C4.01342 19.064 4.01912 19.0854 4.02251 19.0985C4.02423 19.1052 4.02554 19.1105 4.02633 19.1137C4.02711 19.1169 4.02758 19.1188 4.0275 19.1185C4.02747 19.1184 4.02738 19.118 4.02714 19.117C4.02699 19.1164 4.02653 19.1144 4.02616 19.1129C4.02537 19.1095 4.02397 19.1037 4.02231 19.0968C4.01905 19.0834 4.01347 19.0608 4.00614 19.0337L2.0752 19.5547L0.144254 20.0757C0.139502 20.0581 0.136331 20.0451 0.13541 20.0413C0.134921 20.0393 0.134674 20.0383 0.135023 20.0397C0.135235 20.0406 0.135347 20.0411 0.135765 20.0428C0.1361 20.0443 0.136586 20.0463 0.13713 20.0486C0.139118 20.0569 0.143537 20.0753 0.149244 20.0974C0.155101 20.1201 0.163418 20.1511 0.174265 20.1872L2.08984 19.6123ZM2.0752 19.5547L4.00612 19.0336C3.99995 19.0107 4 19.0004 4 19H2H0C0 19.3837 0.054943 19.7448 0.14427 20.0758L2.0752 19.5547ZM2 19L4 19.0002C4 19.0091 3.99957 19.0125 3.99987 19.009C4.00019 19.0054 4.00117 18.9958 4.00381 18.9788L2.02734 18.6729L0.0508772 18.3669C0.023258 18.5454 1.91927e-05 18.7601 0 18.9998L2 19ZM2.02734 18.6729L4.00374 18.9792C4.00587 18.9655 4.00767 18.9532 4.00913 18.9428C4.01059 18.9325 4.01182 18.9235 4.01274 18.9166C4.01363 18.91 4.01443 18.9038 4.01485 18.9006C4.01539 18.8966 4.01553 18.8955 4.01561 18.8949C4.01566 18.8945 4.01543 18.8963 4.015 18.8993C4.01456 18.9024 4.01383 18.9075 4.01282 18.914C4.01085 18.9267 4.00745 18.9475 4.0023 18.9736L2.04004 18.5869L0.07778 18.2002C0.0625975 18.2773 0.0540026 18.3415 0.050891 18.3648C0.0500189 18.3713 0.0492165 18.3774 0.0488079 18.3806C0.0482874 18.3845 0.0481534 18.3855 0.0480788 18.3861C0.047927 18.3872 0.0490117 18.379 0.0509484 18.3665L2.02734 18.6729ZM2.04004 18.5869L4.00229 18.9736C3.99826 18.9941 3.99463 19.01 3.99229 19.0199C3.99 19.0295 3.98849 19.0352 3.98873 19.0343C3.98883 19.0339 3.98917 19.0326 3.98997 19.0296C3.99091 19.0261 3.99169 19.0232 3.99334 19.0171C3.99476 19.0118 3.9967 19.0045 3.99881 18.9966C4.00095 18.9885 4.00349 18.9788 4.00625 18.9681L2.06934 18.4697L0.132419 17.9714C0.13272 17.9702 0.132483 17.9712 0.129943 17.9806C0.128158 17.9873 0.123525 18.0045 0.11901 18.0217C0.109775 18.057 0.0932391 18.1218 0.0777864 18.2002L2.04004 18.5869ZM2.06934 18.4697L4.00646 18.9673C4.01127 18.9485 4.01527 18.9322 4.01752 18.923C4.01812 18.9206 4.01868 18.9183 4.01913 18.9164C4.01962 18.9144 4.01996 18.913 4.0203 18.9116C4.02097 18.9089 4.02124 18.9078 4.02133 18.9075C4.02155 18.9066 4.02023 18.9119 4.01792 18.9206C4.01556 18.9294 4.01161 18.9438 4.00612 18.9619L2.0918 18.3828L0.177476 17.8037C0.158475 17.8665 0.145196 17.9194 0.138874 17.9449C0.136057 17.9562 0.132439 17.9711 0.132003 17.9729C0.130704 17.9782 0.13112 17.9764 0.132216 17.9722L2.06934 18.4697ZM2.0918 18.3828L4.00573 18.9632C4.0015 18.9772 3.99796 18.988 3.99573 18.9947C3.99353 19.0012 3.99217 19.0051 3.9924 19.0044C3.99249 19.0042 3.99281 19.0033 3.99354 19.0012C3.99434 18.999 3.99518 18.9966 3.99663 18.9926C3.99791 18.989 3.99973 18.984 4.00165 18.9786C4.00362 18.9731 4.00597 18.9665 4.00855 18.9592L2.12207 18.2949L0.235594 17.6307C0.235602 17.6307 0.235367 17.6313 0.234729 17.6331C0.234046 17.635 0.23325 17.6372 0.231917 17.641C0.22974 17.647 0.225221 17.6596 0.220529 17.6729C0.21109 17.6996 0.194909 17.7462 0.17786 17.8024L2.0918 18.3828ZM2.12207 18.2949L4.00911 18.9576C4.01179 18.9499 4.01423 18.9429 4.01624 18.9371C4.01724 18.9342 4.0182 18.9315 4.01905 18.929C4.01994 18.9265 4.02063 18.9245 4.02137 18.9224C4.02437 18.9137 4.02538 18.9108 4.02579 18.9097C4.02606 18.9089 4.02471 18.9127 4.02219 18.9194C4.01963 18.9261 4.0154 18.9371 4.00961 18.951L2.16309 18.1826L0.316562 17.4143C0.290165 17.4777 0.270178 17.5325 0.257736 17.5674C0.251461 17.585 0.24592 17.6009 0.242397 17.6111C0.238112 17.6234 0.236719 17.6275 0.23503 17.6323L2.12207 18.2949ZM2.16309 18.1826L4.00889 18.9527C4.00305 18.9667 3.99825 18.9776 3.99525 18.9843C3.99232 18.9908 3.99045 18.9948 3.99075 18.9941C3.99087 18.9939 3.99125 18.993 3.99221 18.991C3.99269 18.99 3.9932 18.9889 3.99389 18.9874C3.99452 18.9861 3.99535 18.9843 3.99619 18.9825C3.9994 18.9757 4.00513 18.9635 4.01158 18.9495L2.19434 18.1143L0.377094 17.279C0.378315 17.2764 0.378733 17.2755 0.376613 17.28C0.375602 17.2822 0.370421 17.2931 0.36608 17.3024C0.356695 17.3226 0.337934 17.363 0.317279 17.4126L2.16309 18.1826ZM2.19434 18.1143L4.01231 18.9479C4.01591 18.9401 4.01844 18.9346 4.02042 18.9303C4.02236 18.9262 4.02334 18.9241 4.02363 18.9235C4.02432 18.9221 4.02099 18.9291 4.01441 18.9413L2.25293 17.9941L0.491445 17.0469C0.438118 17.1461 0.39698 17.2356 0.376357 17.2806L2.19434 18.1143ZM2.25293 17.9941L4.01383 18.9424C4.00487 18.9591 3.9975 18.972 3.99292 18.9799C3.98846 18.9876 3.98555 18.9924 3.98602 18.9916C3.98622 18.9913 3.98673 18.9905 3.98819 18.988C3.98925 18.9863 3.99185 18.982 3.99417 18.9781C3.99906 18.97 4.00755 18.956 4.01729 18.9393L2.29199 17.9277L0.566693 16.9161C0.569946 16.9106 0.571828 16.9075 0.570079 16.9104C0.569084 16.912 0.568358 16.9132 0.566092 16.917C0.564236 16.9201 0.561424 16.9247 0.558314 16.9299C0.546992 16.9487 0.520994 16.9921 0.492031 17.0459L2.25293 17.9941ZM2.29199 17.9277L4.01768 18.9387C4.02059 18.9337 4.02279 18.93 4.02504 18.9261C4.02719 18.9225 4.02892 18.9195 4.03041 18.917C4.03345 18.9118 4.03483 18.9095 4.03522 18.9089C4.03555 18.9083 4.03435 18.9104 4.03192 18.9142C4.02948 18.9181 4.02548 18.9243 4.02009 18.9323L2.3584 17.8193L0.696711 16.7063C0.633435 16.8008 0.581312 16.8912 0.566301 16.9168L2.29199 17.9277ZM2.3584 17.8193L4.02013 18.9323C4.00794 18.9505 3.99793 18.9646 3.99173 18.9732C3.98573 18.9815 3.98172 18.9869 3.98236 18.986C3.98267 18.9856 3.98325 18.9848 3.98526 18.9821C3.98684 18.98 3.98998 18.9759 3.99326 18.9715C3.99984 18.9627 4.0111 18.9476 4.02419 18.9295L2.40332 17.7578L0.782454 16.5862C0.7881 16.5783 0.791799 16.5734 0.790775 16.5748C0.790245 16.5755 0.789576 16.5764 0.787341 16.5794C0.785537 16.5818 0.782304 16.5861 0.778808 16.5907C0.766272 16.6075 0.733529 16.6514 0.696667 16.7064L2.3584 17.8193ZM2.40332 17.7578L4.02387 18.9299C4.03547 18.9139 4.04215 18.9056 4.04461 18.9026C4.04693 18.8998 4.04416 18.9034 4.03639 18.9112L2.62207 17.4971L1.20775 16.083C1.02973 16.261 0.890026 16.4374 0.782773 16.5857L2.40332 17.7578ZM2.62207 17.4971L4.03628 18.9113L18.9113 4.03628L17.4971 2.62207L16.0829 1.20786L1.20786 16.0829L2.62207 17.4971ZM17.4971 2.62207L18.833 4.11044L18.9951 3.96493L17.6592 2.47656L16.3232 0.988192L16.1611 1.1337L17.4971 2.62207Z" fill="#4F4936" mask="url(#path-1-outside-1_657_1194)"/>
</svg>
