<svg width="63" height="51" viewBox="0 0 63 51" fill="none" xmlns="http://www.w3.org/2000/svg">
<g filter="url(#filter0_d_565_661)">
<path d="M37.2409 1.80371C37.8743 1.80371 38.4621 2.1358 38.788 2.67894L40.9672 6.31191H55.3934C56.3894 6.31191 57.1967 7.11926 57.1967 8.11519V37.8693C57.1967 38.8652 56.3894 39.6726 55.3934 39.6726H36.7663C35.1192 40.2556 33.3469 40.5742 31.5 40.5742C29.6531 40.5742 27.8808 40.2556 26.2337 39.6726H7.60655C6.61063 39.6726 5.80328 38.8652 5.80328 37.8693V8.11519C5.80328 7.11926 6.61063 6.31191 7.60655 6.31191H9.40983V5.41027C9.40983 4.41435 10.2172 3.60699 11.2131 3.60699H16.6229C17.6189 3.60699 18.4262 4.41435 18.4262 5.41027V6.31191H22.0328L24.212 2.67894C24.5379 2.1358 25.1257 1.80371 25.7591 1.80371H37.2409Z" fill="white"/>
<path d="M4 37.8689V8.11475C4 6.12291 5.61471 4.5082 7.60656 4.5082V6.31148C6.61063 6.31148 5.80328 7.11883 5.80328 8.11475V37.8689C5.80328 38.8648 6.61063 39.6721 7.60656 39.6721H26.2337C27.8808 40.2552 29.6531 40.5738 31.5 40.5738C33.3469 40.5738 35.1192 40.2552 36.7663 39.6721H55.3934C56.3894 39.6721 57.1967 38.8648 57.1967 37.8689V8.11475C57.1967 7.11883 56.3894 6.31148 55.3934 6.31148V4.5082C57.323 4.5082 58.8989 6.02346 58.9956 7.92897L59 8.11475V37.8689C59 39.8607 57.3853 41.4754 55.3934 41.4754H37.0657C35.315 42.0594 33.4433 42.377 31.5 42.377C29.5567 42.377 27.685 42.0594 25.9343 41.4754H7.60656C5.61471 41.4754 4 39.8607 4 37.8689ZM37.2409 0C38.4272 0 39.5342 0.582828 40.2056 1.55145L40.3341 1.75045V1.75133L41.9877 4.5082H55.3934V6.31148H40.9672L38.788 2.6785C38.4621 2.13537 37.8743 1.80328 37.2409 1.80328V0ZM11.2131 3.60656C10.2172 3.60656 9.40984 4.41391 9.40984 5.40984V6.31148H7.60656V4.5082H7.72014C8.12051 2.95266 9.5326 1.80328 11.2131 1.80328V3.60656ZM25.7591 1.80328C25.1257 1.80328 24.5379 2.13537 24.212 2.6785L22.0328 6.31148H18.4262V5.40984C18.4262 4.41391 17.6189 3.60656 16.623 3.60656V1.80328C18.3035 1.80328 19.7156 2.95266 20.1159 4.5082H21.0123L22.6659 1.75133V1.75045L22.7944 1.55145C23.4658 0.582829 24.5728 0 25.7591 0V1.80328ZM16.623 1.80328V3.60656H11.2131V1.80328H16.623ZM37.2409 0V1.80328H25.7591V0H37.2409Z" fill="#4F4936"/>
<path d="M5.80328 10.8193H57.1967V37.8685C57.1967 38.8644 56.3894 39.6718 55.3934 39.6718H7.60655C6.61063 39.6718 5.80328 38.8644 5.80328 37.8685V10.8193Z" fill="#A8EAF0"/>
<path d="M55.3934 6.31191C56.3894 6.31191 57.1967 7.11926 57.1967 8.11519V10.8201H5.80328V8.11519C5.80328 7.11926 6.61063 6.31191 7.60655 6.31191H22.0328L24.212 2.67893C24.5379 2.1358 25.1257 1.80371 25.7591 1.80371H37.2409C37.8743 1.80371 38.4621 2.1358 38.788 2.67893L40.9672 6.31191H55.3934Z" fill="white"/>
<path d="M9.40984 5.4107C9.40984 4.41478 10.2172 3.60742 11.2131 3.60742H16.623C17.6189 3.60742 18.4262 4.41478 18.4262 5.4107V6.31234H9.40984V5.4107Z" fill="#A8EAF0"/>
<path d="M47.2787 24.7943C47.2787 33.5086 40.2143 40.573 31.5 40.573C22.7857 40.573 15.7213 33.5086 15.7213 24.7943C15.7213 16.08 22.7857 9.01562 31.5 9.01562C40.2143 9.01562 47.2787 16.08 47.2787 24.7943Z" fill="white"/>
<path d="M45.4754 24.7947C45.4754 32.5132 39.2184 38.7702 31.5 38.7702C23.7816 38.7702 17.5246 32.5132 17.5246 24.7947C17.5246 17.0763 23.7816 10.8193 31.5 10.8193C39.2184 10.8193 45.4754 17.0763 45.4754 24.7947Z" fill="#4F4936"/>
<path d="M24.7377 24.7955C24.7377 28.5302 27.7653 31.5578 31.5 31.5578C35.2347 31.5578 38.2623 28.5302 38.2623 24.7955C38.2623 21.0608 35.2347 18.0332 31.5 18.0332C27.7653 18.0332 24.7377 21.0608 24.7377 24.7955Z" fill="#FEFEFE"/>
<path d="M46.3771 10.8193H52.6885V13.5243H46.3771V10.8193Z" fill="#FEE075"/>
</g>
<defs>
<filter id="filter0_d_565_661" x="0" y="0" width="63" height="50.377" filterUnits="userSpaceOnUse" color-interpolation-filters="sRGB">
<feFlood flood-opacity="0" result="BackgroundImageFix"/>
<feColorMatrix in="SourceAlpha" type="matrix" values="0 0 0 0 0 0 0 0 0 0 0 0 0 0 0 0 0 0 127 0" result="hardAlpha"/>
<feOffset dy="4"/>
<feGaussianBlur stdDeviation="2"/>
<feComposite in2="hardAlpha" operator="out"/>
<feColorMatrix type="matrix" values="0 0 0 0 0 0 0 0 0 0 0 0 0 0 0 0 0 0 0.25 0"/>
<feBlend mode="normal" in2="BackgroundImageFix" result="effect1_dropShadow_565_661"/>
<feBlend mode="normal" in="SourceGraphic" in2="effect1_dropShadow_565_661" result="shape"/>
</filter>
</defs>
</svg>
