<svg width="55" height="43" viewBox="0 0 55 43" fill="none" xmlns="http://www.w3.org/2000/svg">
<path d="M33.2408 1.80371C33.8743 1.80371 34.462 2.1358 34.7879 2.67894L36.9672 6.31191H51.3934C52.3893 6.31191 53.1967 7.11926 53.1967 8.11519V37.8693C53.1967 38.8652 52.3893 39.6726 51.3934 39.6726H32.7663C31.1191 40.2556 29.3468 40.5742 27.4999 40.5742C25.6531 40.5742 23.8807 40.2556 22.2336 39.6726H3.6065C2.61058 39.6726 1.80322 38.8652 1.80322 37.8693V8.11519C1.80322 7.11926 2.61058 6.31191 3.6065 6.31191H5.40978V5.41027C5.40978 4.41435 6.21713 3.60699 7.21306 3.60699H12.6229C13.6188 3.60699 14.4262 4.41435 14.4262 5.41027V6.31191H18.0327L20.212 2.67894C20.5379 2.1358 21.1256 1.80371 21.759 1.80371H33.2408Z" fill="white"/>
<path d="M0 37.8689V8.11475C0 6.12291 1.61471 4.5082 3.60656 4.5082V6.31148C2.61063 6.31148 1.80328 7.11883 1.80328 8.11475V37.8689C1.80328 38.8648 2.61063 39.6721 3.60656 39.6721H22.2337C23.8808 40.2552 25.6531 40.5738 27.5 40.5738C29.3469 40.5738 31.1192 40.2552 32.7663 39.6721H51.3934C52.3894 39.6721 53.1967 38.8648 53.1967 37.8689V8.11475C53.1967 7.11883 52.3894 6.31148 51.3934 6.31148V4.5082C53.323 4.5082 54.8989 6.02346 54.9956 7.92897L55 8.11475V37.8689C55 39.8607 53.3853 41.4754 51.3934 41.4754H33.0657C31.315 42.0594 29.4433 42.377 27.5 42.377C25.5567 42.377 23.685 42.0594 21.9343 41.4754H3.60656C1.61471 41.4754 0 39.8607 0 37.8689ZM33.2409 0C34.4272 0 35.5342 0.582828 36.2056 1.55145L36.3341 1.75045V1.75133L37.9877 4.5082H51.3934V6.31148H36.9672L34.788 2.6785C34.4621 2.13537 33.8743 1.80328 33.2409 1.80328V0ZM7.21311 3.60656C6.21719 3.60656 5.40984 4.41391 5.40984 5.40984V6.31148H3.60656V4.5082H3.72014C4.12051 2.95266 5.5326 1.80328 7.21311 1.80328V3.60656ZM21.7591 1.80328C21.1257 1.80328 20.5379 2.13537 20.212 2.6785L18.0328 6.31148H14.4262V5.40984C14.4262 4.41391 13.6189 3.60656 12.623 3.60656V1.80328C14.3035 1.80328 15.7156 2.95266 16.1159 4.5082H17.0123L18.6659 1.75133V1.75045L18.7944 1.55145C19.4658 0.582829 20.5728 0 21.7591 0V1.80328ZM12.623 1.80328V3.60656H7.21311V1.80328H12.623ZM33.2409 0V1.80328H21.7591V0H33.2409Z" fill="#4F4936"/>
<path d="M1.80322 10.8193H53.1967V37.8685C53.1967 38.8644 52.3893 39.6718 51.3934 39.6718H3.6065C2.61058 39.6718 1.80322 38.8644 1.80322 37.8685V10.8193Z" fill="#A8EAF0"/>
<path d="M51.3934 6.31191C52.3893 6.31191 53.1967 7.11926 53.1967 8.11519V10.8201H1.80322V8.11519C1.80322 7.11926 2.61058 6.31191 3.6065 6.31191H18.0327L20.212 2.67893C20.5379 2.1358 21.1256 1.80371 21.759 1.80371H33.2408C33.8743 1.80371 34.462 2.1358 34.7879 2.67893L36.9672 6.31191H51.3934Z" fill="white"/>
<path d="M5.40979 5.4107C5.40979 4.41478 6.21715 3.60742 7.21307 3.60742H12.6229C13.6188 3.60742 14.4262 4.41478 14.4262 5.4107V6.31234H5.40979V5.4107Z" fill="#A8EAF0"/>
<path d="M43.2787 24.7943C43.2787 33.5086 36.2143 40.573 27.5 40.573C18.7857 40.573 11.7213 33.5086 11.7213 24.7943C11.7213 16.08 18.7857 9.01562 27.5 9.01562C36.2143 9.01562 43.2787 16.08 43.2787 24.7943Z" fill="white"/>
<path d="M41.4754 24.7947C41.4754 32.5132 35.2184 38.7702 27.4999 38.7702C19.7815 38.7702 13.5245 32.5132 13.5245 24.7947C13.5245 17.0763 19.7815 10.8193 27.4999 10.8193C35.2184 10.8193 41.4754 17.0763 41.4754 24.7947Z" fill="#4F4936"/>
<path d="M20.7376 24.7955C20.7376 28.5302 23.7652 31.5578 27.4999 31.5578C31.2346 31.5578 34.2622 28.5302 34.2622 24.7955C34.2622 21.0608 31.2346 18.0332 27.4999 18.0332C23.7652 18.0332 20.7376 21.0608 20.7376 24.7955Z" fill="#FEFEFE"/>
<path d="M42.377 10.8193H48.6884V13.5243H42.377V10.8193Z" fill="#FEE075"/>
</svg>
