<svg width="88" height="48" viewBox="0 0 88 48" fill="none" xmlns="http://www.w3.org/2000/svg">
<mask id="path-1-outside-1_504_3823" maskUnits="userSpaceOnUse" x="0" y="0" width="88" height="48" fill="black">
<rect fill="white" width="88" height="48"/>
<path d="M32.5 2C46.5872 2 58.4409 7.95065 61.9453 16.0361C62.459 16.0128 62.9774 16 63.5 16C75.9264 16 86 22.7157 86 31C86 39.2843 75.9264 46 63.5 46C55.2221 46 47.9894 43.0189 44.082 38.5801C40.5108 39.494 36.6001 40 32.5 40C15.6553 40 2 31.4934 2 21C2 10.5066 15.6553 2 32.5 2Z"/>
</mask>
<path d="M61.9453 16.0361L60.1103 16.8315L60.6586 18.0967L62.0362 18.0341L61.9453 16.0361ZM44.082 38.5801L45.5833 37.2586L44.7735 36.3387L43.5862 36.6425L44.082 38.5801ZM32.5 2V4C39.2734 4 45.4563 5.43249 50.32 7.78627C55.2099 10.1528 58.6087 13.3669 60.1103 16.8315L61.9453 16.0361L63.7804 15.2408C61.7776 10.6198 57.4972 6.81594 52.0624 4.18575C46.6013 1.54283 39.8137 0 32.5 0V2ZM61.9453 16.0361L62.0362 18.0341C62.5219 18.012 63.0099 18 63.5 18V16V14C62.9449 14 62.3961 14.0136 61.8544 14.0382L61.9453 16.0361ZM63.5 16V18C69.3734 18 74.6004 19.5907 78.3005 22.0575C82.0146 24.5336 84 27.7346 84 31H86H88C88 25.9811 84.9486 21.6821 80.5193 18.7293C76.0761 15.7671 70.053 14 63.5 14V16ZM86 31H84C84 34.2654 82.0146 37.4664 78.3005 39.9425C74.6004 42.4093 69.3734 44 63.5 44V46V48C70.053 48 76.0761 46.2329 80.5193 43.2707C84.9486 40.3179 88 36.0189 88 31H86ZM63.5 46V44C55.6346 44 49.0155 41.1577 45.5833 37.2586L44.082 38.5801L42.5808 39.9016C46.9633 44.8801 54.8096 48 63.5 48V46ZM44.082 38.5801L43.5862 36.6425C40.1811 37.514 36.4372 38 32.5 38V40V42C36.763 42 40.8405 41.4741 44.5779 40.5176L44.082 38.5801ZM32.5 40V38C24.3913 38 17.1454 35.9486 11.9907 32.7375C6.80705 29.5083 4 25.3051 4 21H2H0C0 27.1883 4.02061 32.4851 9.87575 36.1326C15.7599 39.7981 23.764 42 32.5 42V40ZM2 21H4C4 16.6949 6.80705 12.4917 11.9907 9.26253C17.1454 6.05144 24.3913 4 32.5 4V2V0C23.764 0 15.7599 2.20185 9.87575 5.86741C4.02061 9.51488 0 14.8117 0 21H2Z" fill="#4F4936" mask="url(#path-1-outside-1_504_3823)"/>
<path opacity="0.9" d="M63.5 17C69.5433 17 74.9695 18.635 78.8555 21.2256C82.7482 23.8208 85 27.2963 85 31C85 34.7037 82.7482 38.1792 78.8555 40.7744C74.9695 43.365 69.5433 45 63.5 45C57.4567 45 52.0305 43.365 48.1445 40.7744C44.2518 38.1792 42 34.7037 42 31C42 27.2963 44.2518 23.8208 48.1445 21.2256C52.0305 18.635 57.4567 17 63.5 17Z" fill="#FFF0BB" stroke="#F1BC00" stroke-width="2"/>
<path opacity="0.9" d="M32.5 3C40.7655 3 48.2011 5.08936 53.5381 8.41406C58.8895 11.7478 62 16.2242 62 21C62 25.7758 58.8895 30.2522 53.5381 33.5859C48.2011 36.9106 40.7655 39 32.5 39C24.2345 39 16.7989 36.9106 11.4619 33.5859C6.11048 30.2522 3 25.7758 3 21C3 16.2242 6.11048 11.7478 11.4619 8.41406C16.7989 5.08936 24.2345 3 32.5 3Z" fill="#A8EAF0" stroke="#87B6BA" stroke-width="2"/>
<path d="M31 7C31 6.44772 31.4477 6 32 6C32.5523 6 33 6.44772 33 7V21C33 21.5523 32.5523 22 32 22C31.4477 22 31 21.5523 31 21V7Z" fill="#4F4936"/>
<path d="M47 11L33 15L33 7L47 11Z" fill="#FF8F76"/>
<path d="M63 21C63 20.4477 63.4477 20 64 20C64.5523 20 65 20.4477 65 21V32C65 32.5523 64.5523 33 64 33C63.4477 33 63 32.5523 63 32V21Z" fill="#4F4936"/>
<path d="M76 24.1429L65 27.2857L65 21L76 24.1429Z" fill="#FF8F76"/>
</svg>
