<svg width="208" height="91" viewBox="0 0 208 91" fill="none" xmlns="http://www.w3.org/2000/svg">
<g filter="url(#filter0_d_713_2141)">
<path d="M158.307 56.0672C158.307 52.0685 155.066 48.8269 151.067 48.8269C147.068 48.8269 143.827 52.0685 143.827 56.0672C143.827 60.066 147.068 63.3076 151.067 63.3076V68.1345C144.403 68.1345 139 62.7318 139 56.0672C139 49.4027 144.403 44 151.067 44C157.732 44 163.134 49.4027 163.134 56.0672C163.134 62.7318 157.732 68.1345 151.067 68.1345V63.3076C155.066 63.3076 158.307 60.066 158.307 56.0672Z" fill="white"/>
<path d="M143.983 81.4744L143.903 81.6771C143.453 82.6591 142.271 83.1482 141.155 82.7763C140.039 82.4044 139.387 81.3035 139.616 80.248L139.673 80.0378L145.061 63.8759L149.37 65.3125L143.983 81.4744Z" fill="white"/>
<path d="M159.017 81.4744L159.097 81.6771C159.547 82.6591 160.729 83.1482 161.845 82.7763C162.961 82.4044 163.613 81.3035 163.384 80.248L163.327 80.0378L157.939 63.8759L153.63 65.3125L159.017 81.4744Z" fill="white"/>
</g>
<g filter="url(#filter1_d_713_2141)">
<path d="M178.307 12.0672C178.307 8.06851 175.066 4.8269 171.067 4.8269C167.068 4.8269 163.827 8.06851 163.827 12.0672C163.827 16.066 167.068 19.3076 171.067 19.3076V24.1345C164.403 24.1345 159 18.7318 159 12.0672C159 5.40269 164.403 0 171.067 0C177.732 0 183.134 5.40269 183.134 12.0672C183.134 18.7318 177.732 24.1345 171.067 24.1345V19.3076C175.066 19.3076 178.307 16.066 178.307 12.0672Z" fill="white"/>
<path d="M163.983 37.4744L163.903 37.6771C163.453 38.6591 162.271 39.1482 161.155 38.7763C160.039 38.4044 159.387 37.3035 159.616 36.248L159.673 36.0378L165.061 19.8759L169.37 21.3125L163.983 37.4744Z" fill="white"/>
<path d="M179.017 37.4744L179.097 37.6771C179.547 38.6591 180.729 39.1482 181.845 38.7763C182.961 38.4044 183.613 37.3035 183.384 36.248L183.327 36.0378L177.939 19.8759L173.63 21.3125L179.017 37.4744Z" fill="white"/>
</g>
<g filter="url(#filter2_d_713_2141)">
<path d="M198.307 56.0672C198.307 52.0685 195.066 48.8269 191.067 48.8269C187.068 48.8269 183.827 52.0685 183.827 56.0672C183.827 60.066 187.068 63.3076 191.067 63.3076V68.1345C184.403 68.1345 179 62.7318 179 56.0672C179 49.4027 184.403 44 191.067 44C197.732 44 203.134 49.4027 203.134 56.0672C203.134 62.7318 197.732 68.1345 191.067 68.1345V63.3076C195.066 63.3076 198.307 60.066 198.307 56.0672Z" fill="white"/>
<path d="M183.983 81.4744L183.903 81.6771C183.453 82.6591 182.271 83.1482 181.155 82.7763C180.039 82.4044 179.387 81.3035 179.616 80.248L179.673 80.0378L185.061 63.8759L189.37 65.3125L183.983 81.4744Z" fill="white"/>
<path d="M199.017 81.4744L199.097 81.6771C199.547 82.6591 200.729 83.1482 201.845 82.7763C202.961 82.4044 203.613 81.3035 203.384 80.248L203.327 80.0378L197.939 63.8759L193.63 65.3125L199.017 81.4744Z" fill="white"/>
</g>
<g filter="url(#filter3_d_713_2141)">
<path d="M23.3075 56.0672C23.3075 52.0685 20.0659 48.8269 16.0672 48.8269C12.0685 48.8269 8.82686 52.0685 8.82686 56.0672C8.82686 60.066 12.0685 63.3076 16.0672 63.3076V68.1345C9.40265 68.1345 3.99998 62.7318 3.99998 56.0672C3.99998 49.4027 9.40265 44 16.0672 44C22.7317 44 28.1344 49.4027 28.1344 56.0672C28.1344 62.7318 22.7317 68.1345 16.0672 68.1345V63.3076C20.0659 63.3076 23.3075 60.066 23.3075 56.0672Z" fill="#F1BC00"/>
<path d="M8.98322 81.4744L8.90316 81.6771C8.45326 82.6591 7.27066 83.1482 6.15491 82.7763C5.03915 82.4044 4.38655 81.3035 4.6158 80.248L4.67341 80.0378L10.0607 63.8759L14.3705 65.3125L8.98322 81.4744Z" fill="#F1BC00"/>
<path d="M24.0168 81.4744L24.0968 81.6771C24.5467 82.6591 25.7293 83.1482 26.8451 82.7763C27.9609 82.4044 28.6135 81.3035 28.3842 80.248L28.3266 80.0378L22.9393 63.8759L18.6295 65.3125L24.0168 81.4744Z" fill="#F1BC00"/>
</g>
<g filter="url(#filter4_d_713_2141)">
<path d="M43.3075 12.0672C43.3075 8.06851 40.0659 4.8269 36.0672 4.8269C32.0685 4.8269 28.8269 8.06851 28.8269 12.0672C28.8269 16.066 32.0685 19.3076 36.0672 19.3076V24.1345C29.4026 24.1345 24 18.7318 24 12.0672C24 5.40269 29.4026 0 36.0672 0C42.7317 0 48.1344 5.40269 48.1344 12.0672C48.1344 18.7318 42.7317 24.1345 36.0672 24.1345V19.3076C40.0659 19.3076 43.3075 16.066 43.3075 12.0672Z" fill="#F1BC00"/>
<path d="M28.9832 37.4744L28.9032 37.6771C28.4533 38.6591 27.2707 39.1482 26.1549 38.7763C25.0391 38.4044 24.3865 37.3035 24.6158 36.248L24.6734 36.0378L30.0607 19.8759L34.3705 21.3125L28.9832 37.4744Z" fill="#F1BC00"/>
<path d="M44.0168 37.4744L44.0968 37.6771C44.5467 38.6591 45.7293 39.1482 46.8451 38.7763C47.9609 38.4044 48.6135 37.3035 48.3842 36.248L48.3266 36.0378L42.9393 19.8759L38.6295 21.3125L44.0168 37.4744Z" fill="#F1BC00"/>
</g>
<g filter="url(#filter5_d_713_2141)">
<path d="M63.3075 56.0672C63.3075 52.0685 60.0659 48.8269 56.0672 48.8269C52.0685 48.8269 48.8269 52.0685 48.8269 56.0672C48.8269 60.066 52.0685 63.3076 56.0672 63.3076V68.1345C49.4026 68.1345 44 62.7318 44 56.0672C44 49.4027 49.4026 44 56.0672 44C62.7317 44 68.1344 49.4027 68.1344 56.0672C68.1344 62.7318 62.7317 68.1345 56.0672 68.1345V63.3076C60.0659 63.3076 63.3075 60.066 63.3075 56.0672Z" fill="#F1BC00"/>
<path d="M48.9832 81.4744L48.9032 81.6771C48.4533 82.6591 47.2707 83.1482 46.1549 82.7763C45.0391 82.4044 44.3865 81.3035 44.6158 80.248L44.6734 80.0378L50.0607 63.8759L54.3705 65.3125L48.9832 81.4744Z" fill="#F1BC00"/>
<path d="M64.0168 81.4744L64.0968 81.6771C64.5467 82.6591 65.7293 83.1482 66.8451 82.7763C67.9609 82.4044 68.6135 81.3035 68.3842 80.248L68.3266 80.0378L62.9393 63.8759L58.6295 65.3125L64.0168 81.4744Z" fill="#F1BC00"/>
</g>
<g filter="url(#filter6_d_713_2141)">
<path d="M99.46 63H96.06L91.32 48.34H94.4L96.6 55.42L97.8 60.12H97.88L99.04 55.42L101.24 48.34H104.24L99.46 63ZM110.269 63.26C108.029 63.26 106.189 62.46 104.749 60.86L106.769 58.86C107.756 60.0067 108.989 60.58 110.469 60.58C111.256 60.58 111.856 60.4133 112.269 60.08C112.683 59.7467 112.889 59.2867 112.889 58.7C112.889 58.2333 112.749 57.86 112.469 57.58C112.203 57.3 111.736 57.1133 111.069 57.02L109.649 56.82C106.676 56.4067 105.189 54.96 105.189 52.48C105.189 51.6133 105.409 50.8467 105.849 50.18C106.289 49.5133 106.916 49 107.729 48.64C108.556 48.2667 109.523 48.08 110.629 48.08C112.763 48.08 114.443 48.78 115.669 50.18L113.649 52.18C113.263 51.7267 112.809 51.38 112.289 51.14C111.783 50.8867 111.169 50.76 110.449 50.76C109.716 50.76 109.163 50.8933 108.789 51.16C108.416 51.4267 108.229 51.8067 108.229 52.3C108.229 52.8067 108.369 53.1867 108.649 53.44C108.943 53.68 109.423 53.8533 110.089 53.96L111.509 54.2C113.016 54.4667 114.129 54.9467 114.849 55.64C115.569 56.3333 115.929 57.2933 115.929 58.52C115.929 59.4533 115.703 60.28 115.249 61C114.809 61.7067 114.163 62.26 113.309 62.66C112.456 63.06 111.443 63.26 110.269 63.26Z" fill="#E13535"/>
</g>
<defs>
<filter id="filter0_d_713_2141" x="135" y="44" width="32.4299" height="46.9004" filterUnits="userSpaceOnUse" color-interpolation-filters="sRGB">
<feFlood flood-opacity="0" result="BackgroundImageFix"/>
<feColorMatrix in="SourceAlpha" type="matrix" values="0 0 0 0 0 0 0 0 0 0 0 0 0 0 0 0 0 0 127 0" result="hardAlpha"/>
<feOffset dy="4"/>
<feGaussianBlur stdDeviation="2"/>
<feComposite in2="hardAlpha" operator="out"/>
<feColorMatrix type="matrix" values="0 0 0 0 0 0 0 0 0 0 0 0 0 0 0 0 0 0 0.25 0"/>
<feBlend mode="normal" in2="BackgroundImageFix" result="effect1_dropShadow_713_2141"/>
<feBlend mode="normal" in="SourceGraphic" in2="effect1_dropShadow_713_2141" result="shape"/>
</filter>
<filter id="filter1_d_713_2141" x="155" y="0" width="32.4299" height="46.9004" filterUnits="userSpaceOnUse" color-interpolation-filters="sRGB">
<feFlood flood-opacity="0" result="BackgroundImageFix"/>
<feColorMatrix in="SourceAlpha" type="matrix" values="0 0 0 0 0 0 0 0 0 0 0 0 0 0 0 0 0 0 127 0" result="hardAlpha"/>
<feOffset dy="4"/>
<feGaussianBlur stdDeviation="2"/>
<feComposite in2="hardAlpha" operator="out"/>
<feColorMatrix type="matrix" values="0 0 0 0 0 0 0 0 0 0 0 0 0 0 0 0 0 0 0.25 0"/>
<feBlend mode="normal" in2="BackgroundImageFix" result="effect1_dropShadow_713_2141"/>
<feBlend mode="normal" in="SourceGraphic" in2="effect1_dropShadow_713_2141" result="shape"/>
</filter>
<filter id="filter2_d_713_2141" x="175" y="44" width="32.4299" height="46.9004" filterUnits="userSpaceOnUse" color-interpolation-filters="sRGB">
<feFlood flood-opacity="0" result="BackgroundImageFix"/>
<feColorMatrix in="SourceAlpha" type="matrix" values="0 0 0 0 0 0 0 0 0 0 0 0 0 0 0 0 0 0 127 0" result="hardAlpha"/>
<feOffset dy="4"/>
<feGaussianBlur stdDeviation="2"/>
<feComposite in2="hardAlpha" operator="out"/>
<feColorMatrix type="matrix" values="0 0 0 0 0 0 0 0 0 0 0 0 0 0 0 0 0 0 0.25 0"/>
<feBlend mode="normal" in2="BackgroundImageFix" result="effect1_dropShadow_713_2141"/>
<feBlend mode="normal" in="SourceGraphic" in2="effect1_dropShadow_713_2141" result="shape"/>
</filter>
<filter id="filter3_d_713_2141" x="-1.52588e-05" y="44" width="32.4299" height="46.9004" filterUnits="userSpaceOnUse" color-interpolation-filters="sRGB">
<feFlood flood-opacity="0" result="BackgroundImageFix"/>
<feColorMatrix in="SourceAlpha" type="matrix" values="0 0 0 0 0 0 0 0 0 0 0 0 0 0 0 0 0 0 127 0" result="hardAlpha"/>
<feOffset dy="4"/>
<feGaussianBlur stdDeviation="2"/>
<feComposite in2="hardAlpha" operator="out"/>
<feColorMatrix type="matrix" values="0 0 0 0 0 0 0 0 0 0 0 0 0 0 0 0 0 0 0.25 0"/>
<feBlend mode="normal" in2="BackgroundImageFix" result="effect1_dropShadow_713_2141"/>
<feBlend mode="normal" in="SourceGraphic" in2="effect1_dropShadow_713_2141" result="shape"/>
</filter>
<filter id="filter4_d_713_2141" x="20" y="0" width="32.4299" height="46.9004" filterUnits="userSpaceOnUse" color-interpolation-filters="sRGB">
<feFlood flood-opacity="0" result="BackgroundImageFix"/>
<feColorMatrix in="SourceAlpha" type="matrix" values="0 0 0 0 0 0 0 0 0 0 0 0 0 0 0 0 0 0 127 0" result="hardAlpha"/>
<feOffset dy="4"/>
<feGaussianBlur stdDeviation="2"/>
<feComposite in2="hardAlpha" operator="out"/>
<feColorMatrix type="matrix" values="0 0 0 0 0 0 0 0 0 0 0 0 0 0 0 0 0 0 0.25 0"/>
<feBlend mode="normal" in2="BackgroundImageFix" result="effect1_dropShadow_713_2141"/>
<feBlend mode="normal" in="SourceGraphic" in2="effect1_dropShadow_713_2141" result="shape"/>
</filter>
<filter id="filter5_d_713_2141" x="40" y="44" width="32.4299" height="46.9004" filterUnits="userSpaceOnUse" color-interpolation-filters="sRGB">
<feFlood flood-opacity="0" result="BackgroundImageFix"/>
<feColorMatrix in="SourceAlpha" type="matrix" values="0 0 0 0 0 0 0 0 0 0 0 0 0 0 0 0 0 0 127 0" result="hardAlpha"/>
<feOffset dy="4"/>
<feGaussianBlur stdDeviation="2"/>
<feComposite in2="hardAlpha" operator="out"/>
<feColorMatrix type="matrix" values="0 0 0 0 0 0 0 0 0 0 0 0 0 0 0 0 0 0 0.25 0"/>
<feBlend mode="normal" in2="BackgroundImageFix" result="effect1_dropShadow_713_2141"/>
<feBlend mode="normal" in="SourceGraphic" in2="effect1_dropShadow_713_2141" result="shape"/>
</filter>
<filter id="filter6_d_713_2141" x="87.32" y="48.0801" width="32.6092" height="23.1797" filterUnits="userSpaceOnUse" color-interpolation-filters="sRGB">
<feFlood flood-opacity="0" result="BackgroundImageFix"/>
<feColorMatrix in="SourceAlpha" type="matrix" values="0 0 0 0 0 0 0 0 0 0 0 0 0 0 0 0 0 0 127 0" result="hardAlpha"/>
<feOffset dy="4"/>
<feGaussianBlur stdDeviation="2"/>
<feComposite in2="hardAlpha" operator="out"/>
<feColorMatrix type="matrix" values="0 0 0 0 0 0 0 0 0 0 0 0 0 0 0 0 0 0 0.25 0"/>
<feBlend mode="normal" in2="BackgroundImageFix" result="effect1_dropShadow_713_2141"/>
<feBlend mode="normal" in="SourceGraphic" in2="effect1_dropShadow_713_2141" result="shape"/>
</filter>
</defs>
</svg>
