<svg width="32" height="26" viewBox="0 0 32 26" fill="none" xmlns="http://www.w3.org/2000/svg">
<path d="M7.96118 21.6867C3.58874 21.6867 0.0483398 19.9161 0.0483398 17.7266V20.24C0.0483398 22.4239 3.59432 24.2001 7.96118 24.2001C12.328 24.2001 15.874 22.4295 15.874 20.24V17.7266C15.874 19.9105 12.328 21.6867 7.96118 21.6867Z" fill="#F8DC00"/>
<path fill-rule="evenodd" clip-rule="evenodd" d="M15.6207 18.7229C14.7366 20.426 11.6402 21.6867 7.96118 21.6867C4.27795 21.6867 1.18513 20.4303 0.301626 18.7254C0.136304 18.4064 0.0483398 18.0717 0.0483398 17.7266V20.24C0.0483398 22.4239 3.59432 24.2001 7.96118 24.2001C12.328 24.2001 15.874 22.4295 15.874 20.24V17.7266C15.874 18.0706 15.7861 18.4044 15.6207 18.7229ZM15.6207 19.2054C15.1879 19.8098 14.5035 20.3341 13.6686 20.7521C12.1942 21.4901 10.1755 21.9399 7.96118 21.9399C5.7442 21.9399 3.72555 21.4916 2.25176 20.7542C1.41748 20.3368 0.733971 19.8128 0.301626 19.2084V20.24C0.301626 21.1843 1.07499 22.1089 2.48057 22.8125C3.87089 23.5085 5.80868 23.9468 7.96118 23.9468C10.1138 23.9468 12.0516 23.5099 13.4419 22.8146C14.8472 22.1118 15.6207 21.1872 15.6207 20.24V19.2054Z" fill="#F6CD17"/>
<path d="M1.01999 19.6143C1.01999 19.6143 1.04233 22.1947 1.04233 22.1892C1.04791 22.1836 1.36621 22.4908 2.02515 22.8818L1.89671 20.2622C1.89671 20.2622 1.37179 19.9717 1.0144 19.6143H1.01999Z" fill="#F7CD18"/>
<path d="M3.36523 20.9609C3.36523 20.9609 3.40991 23.4856 3.41549 23.48C3.42108 23.4744 3.63328 23.5526 4.4039 23.776L4.30338 21.2458C4.30338 21.2458 3.82314 21.1508 3.36523 20.9609Z" fill="#F7CD18"/>
<path d="M5.71045 21.5518C5.71045 21.5518 5.75512 24.0764 5.76071 24.0708C5.76629 24.0652 5.88914 24.082 6.72119 24.1769L6.6486 21.6579C6.6486 21.6579 6.15719 21.6244 5.71045 21.5518Z" fill="#F7CD18"/>
<path d="M9.98804 21.5518C9.98804 21.5518 9.94337 24.0764 9.93778 24.0708C9.9322 24.0652 9.80934 24.082 8.97729 24.1769L9.04989 21.6579C9.04989 21.6579 9.5413 21.6244 9.98804 21.5518Z" fill="#F7CD18"/>
<path d="M12.5907 20.9551C12.5907 20.9551 12.546 23.4797 12.5404 23.4741C12.5348 23.4685 12.3226 23.5467 11.552 23.7702L11.6525 21.2399C11.6525 21.2399 12.1328 21.145 12.5907 20.9551Z" fill="#F7CD18"/>
<path d="M14.9077 19.5977C14.9077 19.5977 14.8854 22.1781 14.8854 22.1726C14.8798 22.167 14.5615 22.4742 13.9026 22.8652L14.031 20.2456C14.031 20.2456 14.5559 19.9551 14.9133 19.5977H14.9077Z" fill="#F7CD18"/>
<path d="M7.96373 21.6932C12.3354 21.6932 15.801 19.9037 15.801 17.6962C15.801 15.4887 12.3354 13.6992 7.96373 13.6992C3.59204 13.6992 0.126465 15.5671 0.126465 17.7746C0.126465 19.9821 3.59204 21.6932 7.96373 21.6932Z" fill="#FBDD0A"/>
<path fill-rule="evenodd" clip-rule="evenodd" d="M2.46483 15.0209C1.06698 15.7559 0.253286 16.7415 0.253286 17.7743C0.253286 18.8052 1.06457 19.7518 2.46236 20.448C3.85378 21.1411 5.7928 21.5663 7.96391 21.5663C10.1342 21.5663 12.0728 21.1218 13.4642 20.4095C14.862 19.6939 15.6745 18.7278 15.6745 17.6959C15.6745 16.6641 14.862 15.6979 13.4642 14.9823C12.0728 14.27 10.1342 13.8256 7.96391 13.8256C5.7945 13.8256 3.8562 14.2893 2.46483 15.0209ZM2.34695 14.7967C3.7813 14.0425 5.76163 13.5723 7.96391 13.5723C10.1653 13.5723 12.1453 14.0226 13.5796 14.7569C15.0075 15.4879 15.9278 16.5203 15.9278 17.6959C15.9278 18.8715 15.0075 19.9039 13.5796 20.635C12.1453 21.3693 10.1653 21.8196 7.96391 21.8196C5.76333 21.8196 3.78371 21.3892 2.34943 20.6748C0.921502 19.9635 0 18.9509 0 17.7743C0 16.5996 0.919094 15.5475 2.34695 14.7967Z" fill="#F6CD17"/>
<path d="M7.96092 21.2901C11.8962 21.2901 15.0864 19.6947 15.0864 17.7266C15.0864 15.7585 11.8962 14.1631 7.96092 14.1631C4.02563 14.1631 0.835449 15.7585 0.835449 17.7266C0.835449 19.6947 4.02563 21.2901 7.96092 21.2901Z" fill="#FBDD0A"/>
<path fill-rule="evenodd" clip-rule="evenodd" d="M2.97928 15.3217C1.70329 15.9599 0.96227 16.818 0.96227 17.7283C0.96227 18.6385 1.70329 19.4966 2.97928 20.1348C4.24769 20.7691 6.00885 21.1651 7.9611 21.1651C9.91334 21.1651 11.6745 20.7691 12.9429 20.1348C14.2189 19.4966 14.9599 18.6385 14.9599 17.7283C14.9599 16.818 14.2189 15.9599 12.9429 15.3217C11.6745 14.6874 9.91334 14.2914 7.9611 14.2914C6.00885 14.2914 4.24769 14.6874 2.97928 15.3217ZM2.86598 15.0952C4.17648 14.4398 5.97805 14.0381 7.9611 14.0381C9.94414 14.0381 11.7457 14.4398 13.0562 15.0952C14.3591 15.7468 15.2132 16.6704 15.2132 17.7283C15.2132 18.7861 14.3591 19.7097 13.0562 20.3613C11.7457 21.0167 9.94414 21.4184 7.9611 21.4184C5.97805 21.4184 4.17648 21.0167 2.86598 20.3613C1.56305 19.7097 0.708984 18.7861 0.708984 17.7283C0.708984 16.6704 1.56305 15.7468 2.86598 15.0952Z" fill="#F6CD17"/>
<path d="M12.1959 14.6396L12.8098 16.2986L14.4687 16.9125L12.8098 17.5263L12.1959 19.1853L11.582 17.5263L9.9231 16.9125L11.582 16.2986L12.1959 14.6396Z" fill="white"/>
<path d="M2.39948 10.877L2.7805 11.9066L3.81018 12.2877L2.7805 12.6687L2.39948 13.6984L2.01846 12.6687L0.98877 12.2877L2.01846 11.9066L2.39948 10.877Z" fill="#FBDD0A"/>
<path d="M7.96118 18.5197C3.58874 18.5197 0.0483398 16.7491 0.0483398 14.5596V17.073C0.0483398 19.2569 3.59432 21.0331 7.96118 21.0331C12.328 21.0331 15.874 19.2625 15.874 17.073V14.5596C15.874 16.7435 12.328 18.5197 7.96118 18.5197Z" fill="#F8DC00"/>
<path fill-rule="evenodd" clip-rule="evenodd" d="M15.6207 15.5559C14.7366 17.259 11.6402 18.5197 7.96118 18.5197C4.27795 18.5197 1.18513 17.2633 0.301626 15.5584C0.136304 15.2394 0.0483398 14.9047 0.0483398 14.5596V17.073C0.0483398 19.2569 3.59432 21.0331 7.96118 21.0331C12.328 21.0331 15.874 19.2625 15.874 17.073V14.5596C15.874 14.9036 15.7861 15.2375 15.6207 15.5559ZM15.6207 16.0384C15.1879 16.6428 14.5035 17.1671 13.6686 17.5851C12.1942 18.3232 10.1755 18.773 7.96118 18.773C5.7442 18.773 3.72555 18.3246 2.25176 17.5872C1.41748 17.1698 0.733971 16.6458 0.301626 16.0414V17.073C0.301626 18.0173 1.07499 18.9419 2.48057 19.6456C3.87089 20.3415 5.80868 20.7798 7.96118 20.7798C10.1138 20.7798 12.0516 20.3429 13.4419 19.6476C14.8472 18.9448 15.6207 18.0202 15.6207 17.073V16.0384Z" fill="#F6CD17"/>
<path d="M1.01999 16.4473C1.01999 16.4473 1.04233 19.0278 1.04233 19.0222C1.04791 19.0166 1.36621 19.3238 2.02515 19.7148L1.89671 17.0952C1.89671 17.0952 1.37179 16.8047 1.0144 16.4473H1.01999Z" fill="#F7CD18"/>
<path d="M3.36523 17.7939C3.36523 17.7939 3.40991 20.3186 3.41549 20.313C3.42108 20.3074 3.63328 20.3856 4.4039 20.609L4.30338 18.0788C4.30338 18.0788 3.82314 17.9839 3.36523 17.7939Z" fill="#F7CD18"/>
<path d="M5.71045 18.3867C5.71045 18.3867 5.75512 20.9113 5.76071 20.9058C5.76629 20.9002 5.88914 20.9169 6.72119 21.0119L6.6486 18.4928C6.6486 18.4928 6.15719 18.4593 5.71045 18.3867Z" fill="#F7CD18"/>
<path d="M9.98804 18.3867C9.98804 18.3867 9.94337 20.9113 9.93778 20.9058C9.9322 20.9002 9.80934 20.9169 8.97729 21.0119L9.04989 18.4928C9.04989 18.4928 9.5413 18.4593 9.98804 18.3867Z" fill="#F7CD18"/>
<path d="M12.5907 17.7881C12.5907 17.7881 12.546 20.3127 12.5404 20.3071C12.5348 20.3015 12.3226 20.3797 11.552 20.6032L11.6525 18.0729C11.6525 18.0729 12.1328 17.978 12.5907 17.7881Z" fill="#F7CD18"/>
<path d="M14.9077 16.4316C14.9077 16.4316 14.8854 19.0121 14.8854 19.0065C14.8798 19.001 14.5615 19.3082 13.9026 19.6991L14.031 17.0796C14.031 17.0796 14.5559 16.7891 14.9133 16.4316H14.9077Z" fill="#F7CD18"/>
<path d="M7.96373 18.5253C12.3354 18.5253 15.801 16.7357 15.801 14.5283C15.801 12.3208 12.3354 10.5312 7.96373 10.5312C3.59204 10.5312 0.126465 12.3991 0.126465 14.6066C0.126465 16.8141 3.59204 18.5253 7.96373 18.5253Z" fill="#FBDD0A"/>
<path fill-rule="evenodd" clip-rule="evenodd" d="M2.46483 11.8549C1.06698 12.5899 0.253286 13.5755 0.253286 14.6083C0.253286 15.6392 1.06457 16.5858 2.46236 17.282C3.85378 17.9751 5.7928 18.4003 7.96391 18.4003C10.1342 18.4003 12.0728 17.9558 13.4642 17.2435C14.862 16.5279 15.6745 15.5617 15.6745 14.5299C15.6745 13.498 14.862 12.5319 13.4642 11.8163C12.0728 11.104 10.1342 10.6595 7.96391 10.6595C5.7945 10.6595 3.8562 11.1233 2.46483 11.8549ZM2.34695 11.6307C3.7813 10.8765 5.76163 10.4062 7.96391 10.4062C10.1653 10.4062 12.1453 10.8566 13.5796 11.5909C15.0075 12.3219 15.9278 13.3543 15.9278 14.5299C15.9278 15.7055 15.0075 16.7379 13.5796 17.4689C12.1453 18.2032 10.1653 18.6535 7.96391 18.6535C5.76333 18.6535 3.78371 18.2231 2.34943 17.5088C0.921502 16.7975 0 15.7848 0 14.6083C0 13.4336 0.919094 12.3815 2.34695 11.6307Z" fill="#F6CD17"/>
<path d="M7.96092 18.1231C11.8962 18.1231 15.0864 16.5277 15.0864 14.5596C15.0864 12.5915 11.8962 10.9961 7.96092 10.9961C4.02563 10.9961 0.835449 12.5915 0.835449 14.5596C0.835449 16.5277 4.02563 18.1231 7.96092 18.1231Z" fill="#FBDD0A"/>
<path fill-rule="evenodd" clip-rule="evenodd" d="M2.97928 12.1547C1.70329 12.7929 0.96227 13.651 0.96227 14.5613C0.96227 15.4715 1.70329 16.3297 2.97928 16.9678C4.24769 17.6021 6.00885 17.9981 7.9611 17.9981C9.91334 17.9981 11.6745 17.6021 12.9429 16.9678C14.2189 16.3297 14.9599 15.4715 14.9599 14.5613C14.9599 13.651 14.2189 12.7929 12.9429 12.1547C11.6745 11.5204 9.91334 11.1244 7.9611 11.1244C6.00885 11.1244 4.24769 11.5204 2.97928 12.1547ZM2.86598 11.9282C4.17648 11.2728 5.97805 10.8711 7.9611 10.8711C9.94414 10.8711 11.7457 11.2728 13.0562 11.9282C14.3591 12.5798 15.2132 13.5034 15.2132 14.5613C15.2132 15.6191 14.3591 16.5427 13.0562 17.1943C11.7457 17.8497 9.94414 18.2514 7.9611 18.2514C5.97805 18.2514 4.17648 17.8497 2.86598 17.1943C1.56305 16.5427 0.708984 15.6191 0.708984 14.5613C0.708984 13.5034 1.56305 12.5798 2.86598 11.9282Z" fill="#F6CD17"/>
<path d="M12.1959 11.4727L12.8098 13.1316L14.4687 13.7455L12.8098 14.3593L12.1959 16.0183L11.582 14.3593L9.9231 13.7455L11.582 13.1316L12.1959 11.4727Z" fill="white"/>
<path d="M8.31696 4.74707L8.69798 5.77676L9.72766 6.15778L8.69798 6.5388L8.31696 7.56848L7.93594 6.5388L6.90625 6.15778L7.93594 5.77676L8.31696 4.74707Z" fill="#FBDD0A"/>
<path d="M7.96118 15.3556C3.58874 15.3556 0.0483398 13.585 0.0483398 11.3955V13.909C0.0483398 16.0929 3.59432 17.8691 7.96118 17.8691C12.328 17.8691 15.874 16.0985 15.874 13.909V11.3955C15.874 13.5794 12.328 15.3556 7.96118 15.3556Z" fill="#F8DC00"/>
<path fill-rule="evenodd" clip-rule="evenodd" d="M15.6207 12.3918C14.7366 14.0949 11.6402 15.3556 7.96118 15.3556C4.27795 15.3556 1.18513 14.0992 0.301626 12.3944C0.136304 12.0753 0.0483398 11.7406 0.0483398 11.3955V13.909C0.0483398 16.0929 3.59432 17.8691 7.96118 17.8691C12.328 17.8691 15.874 16.0985 15.874 13.909V11.3955C15.874 11.7395 15.7861 12.0734 15.6207 12.3918ZM15.6207 12.8743C15.1879 13.4787 14.5035 14.0031 13.6686 14.421C12.1942 15.1591 10.1755 15.6089 7.96118 15.6089C5.7442 15.6089 3.72555 15.1606 2.25176 14.4231C1.41748 14.0057 0.733971 13.4818 0.301626 12.8774V13.909C0.301626 14.8533 1.07499 15.7779 2.48057 16.4815C3.87089 17.1775 5.80868 17.6158 7.96118 17.6158C10.1138 17.6158 12.0516 17.1788 13.4419 16.4835C14.8472 15.7807 15.6207 14.8562 15.6207 13.909V12.8743Z" fill="#F6CD17"/>
<path d="M1.01999 13.2832C1.01999 13.2832 1.04233 15.8637 1.04233 15.8581C1.04791 15.8525 1.36621 16.1597 2.02515 16.5507L1.89671 13.9311C1.89671 13.9311 1.37179 13.6407 1.0144 13.2832H1.01999Z" fill="#F7CD18"/>
<path d="M3.36523 14.6299C3.36523 14.6299 3.40991 17.1545 3.41549 17.1489C3.42108 17.1433 3.63328 17.2215 4.4039 17.445L4.30338 14.9147C4.30338 14.9147 3.82314 14.8198 3.36523 14.6299Z" fill="#F7CD18"/>
<path d="M5.71045 15.2227C5.71045 15.2227 5.75512 17.7473 5.76071 17.7417C5.76629 17.7361 5.88914 17.7529 6.72119 17.8478L6.6486 15.3288C6.6486 15.3288 6.15719 15.2953 5.71045 15.2227Z" fill="#F7CD18"/>
<path d="M9.98804 15.2227C9.98804 15.2227 9.94337 17.7473 9.93778 17.7417C9.9322 17.7361 9.80934 17.7529 8.97729 17.8478L9.04989 15.3288C9.04989 15.3288 9.5413 15.2953 9.98804 15.2227Z" fill="#F7CD18"/>
<path d="M12.5907 14.624C12.5907 14.624 12.546 17.1487 12.5404 17.1431C12.5348 17.1375 12.3226 17.2157 11.552 17.4391L11.6525 14.9089C11.6525 14.9089 12.1328 14.8139 12.5907 14.624Z" fill="#F7CD18"/>
<path d="M14.9077 13.2656C14.9077 13.2656 14.8854 15.8461 14.8854 15.8405C14.8798 15.8349 14.5615 16.1421 13.9026 16.5331L14.031 13.9135C14.031 13.9135 14.5559 13.6231 14.9133 13.2656H14.9077Z" fill="#F7CD18"/>
<path d="M7.96373 15.3602C12.3354 15.3602 15.801 13.5707 15.801 11.3632C15.801 9.15573 12.3354 7.36621 7.96373 7.36621C3.59204 7.36621 0.126465 9.2341 0.126465 11.4416C0.126465 13.6491 3.59204 15.3602 7.96373 15.3602Z" fill="#FBDD0A"/>
<path fill-rule="evenodd" clip-rule="evenodd" d="M2.46483 8.68983C1.06698 9.42485 0.253286 10.4105 0.253286 11.4432C0.253286 12.4741 1.06457 13.4208 2.46236 14.117C3.85378 14.81 5.7928 15.2352 7.96391 15.2352C10.1342 15.2352 12.0728 14.7908 13.4642 14.0784C14.862 13.3628 15.6745 12.3967 15.6745 11.3649C15.6745 10.333 14.862 9.36689 13.4642 8.65128C12.0728 7.93895 10.1342 7.4945 7.96391 7.4945C5.7945 7.4945 3.8562 7.95822 2.46483 8.68983ZM2.34695 8.46564C3.7813 7.71143 5.76163 7.24121 7.96391 7.24121C10.1653 7.24121 12.1453 7.69151 13.5796 8.42582C15.0075 9.15684 15.9278 10.1892 15.9278 11.3649C15.9278 12.5405 15.0075 13.5729 13.5796 14.3039C12.1453 15.0382 10.1653 15.4885 7.96391 15.4885C5.76333 15.4885 3.78371 15.0581 2.34943 14.3437C0.921502 13.6325 0 12.6198 0 11.4432C0 10.2685 0.919094 9.21644 2.34695 8.46564Z" fill="#F6CD17"/>
<path d="M7.96092 14.9591C11.8962 14.9591 15.0864 13.3636 15.0864 11.3956C15.0864 9.42748 11.8962 7.83203 7.96092 7.83203C4.02563 7.83203 0.835449 9.42748 0.835449 11.3956C0.835449 13.3636 4.02563 14.9591 7.96092 14.9591Z" fill="#FBDD0A"/>
<path fill-rule="evenodd" clip-rule="evenodd" d="M2.97928 8.98872C1.70329 9.62686 0.96227 10.485 0.96227 11.3952C0.96227 12.3055 1.70329 13.1636 2.97928 13.8018C4.24769 14.4361 6.00885 14.8321 7.9611 14.8321C9.91334 14.8321 11.6745 14.4361 12.9429 13.8018C14.2189 13.1636 14.9599 12.3055 14.9599 11.3952C14.9599 10.485 14.2189 9.62686 12.9429 8.98872C11.6745 8.35437 9.91334 7.95836 7.9611 7.95836C6.00885 7.95836 4.24769 8.35437 2.97928 8.98872ZM2.86598 8.76219C4.17648 8.10679 5.97805 7.70508 7.9611 7.70508C9.94414 7.70508 11.7457 8.10679 13.0562 8.76219C14.3591 9.4138 15.2132 10.3374 15.2132 11.3952C15.2132 12.4531 14.3591 13.3767 13.0562 14.0283C11.7457 14.6837 9.94414 15.0854 7.9611 15.0854C5.97805 15.0854 4.17648 14.6837 2.86598 14.0283C1.56305 13.3767 0.708984 12.4531 0.708984 11.3952C0.708984 10.3374 1.56305 9.4138 2.86598 8.76219Z" fill="#F6CD17"/>
<path d="M12.1959 8.30859L12.8098 9.96754L14.4687 10.5814L12.8098 11.1953L12.1959 12.8542L11.582 11.1953L9.9231 10.5814L11.582 9.96754L12.1959 8.30859Z" fill="white"/>
<path d="M10.315 0L10.9289 1.65894L12.5878 2.27281L10.9289 2.88667L10.315 4.54561L9.70118 2.88667L8.04224 2.27281L9.70118 1.65894L10.315 0Z" fill="#FBDD0A"/>
<path d="M2.39948 4.54688L2.7805 5.57656L3.81018 5.95758L2.7805 6.3386L2.39948 7.36829L2.01846 6.3386L0.98877 5.95758L2.01846 5.57656L2.39948 4.54688Z" fill="#FBDD0A"/>
<path d="M16.3885 18.0361C13.2967 14.9443 12.0453 11.1888 13.5935 9.64062L11.8162 11.4179C10.272 12.9622 11.5234 16.7255 14.6112 19.8133C17.6991 22.9012 21.4585 24.1566 23.0067 22.6084L24.784 20.8311C23.2397 22.3753 19.4764 21.1239 16.3885 18.0361Z" fill="#F8DC00"/>
<path fill-rule="evenodd" clip-rule="evenodd" d="M23.9004 21.3565C22.0709 21.9355 18.99 20.6375 16.3885 18.0361C13.7841 15.4316 12.4855 12.3563 13.0663 10.526C13.175 10.1835 13.3495 9.88466 13.5935 9.64062L11.8162 11.4179C10.272 12.9622 11.5234 16.7255 14.6112 19.8133C17.6991 22.9012 21.4585 24.1566 23.0067 22.6084L24.784 20.8311C24.5407 21.0743 24.2424 21.2482 23.9004 21.3565ZM23.5592 21.6977C22.8258 21.819 21.971 21.7058 21.0851 21.4109C19.5206 20.8903 17.7752 19.7809 16.2094 18.2152C14.6418 16.6475 13.5314 14.9031 13.0107 13.3395C12.716 12.4544 12.6031 11.6007 12.7248 10.8676L11.9953 11.597C11.3276 12.2647 11.2207 13.4654 11.717 14.9568C12.208 16.432 13.2683 18.1122 14.7903 19.6342C16.3125 21.1564 17.9917 22.2177 19.4664 22.7091C20.9571 23.2058 22.1578 23.099 22.8276 22.4293L23.5592 21.6977Z" fill="#F6CD17"/>
<path d="M12.9456 11.6622C12.9456 11.6622 11.1367 13.5026 11.1407 13.4987C11.1486 13.4987 11.1564 13.941 11.3459 14.6834L13.1074 12.7402C13.1074 12.7402 12.9416 12.1637 12.9417 11.6582L12.9456 11.6622Z" fill="#F7CD18"/>
<path d="M13.6521 14.2715C13.6521 14.2715 11.8985 16.0883 11.9064 16.0883C11.9143 16.0883 12.0091 16.2936 12.396 16.9965L14.114 15.1363C14.114 15.1363 13.8416 14.7296 13.6521 14.2715Z" fill="#F7CD18"/>
<path d="M14.8921 16.3486C14.8921 16.3486 13.1385 18.1654 13.1464 18.1654C13.1543 18.1654 13.2293 18.2641 13.7505 18.9196L15.4804 17.087C15.4804 17.087 15.1566 16.7159 14.8921 16.3486Z" fill="#F7CD18"/>
<path d="M17.9166 19.3739C17.9166 19.3739 16.0998 21.1275 16.0998 21.1196C16.0998 21.1117 16.0011 21.0367 15.3456 20.5155L17.1782 18.7856C17.1782 18.7856 17.5494 19.1093 17.9166 19.3739Z" fill="#F7CD18"/>
<path d="M20.1793 20.7911C20.1793 20.7911 18.3625 22.5447 18.3625 22.5368C18.3625 22.5289 18.1572 22.4341 17.4543 22.0472L19.3145 20.3291C19.3145 20.3291 19.7212 20.6016 20.1793 20.7911Z" fill="#F7CD18"/>
<path d="M22.7777 21.4705C22.7777 21.4705 20.9372 23.2794 20.9411 23.2755C20.9411 23.2676 20.4988 23.2597 19.7564 23.0702L21.6996 21.3087C21.6996 21.3087 22.2761 21.4745 22.7816 21.4745L22.7777 21.4705Z" fill="#F7CD18"/>
<path d="M16.3867 18.0411C19.478 21.1323 23.1939 22.3175 24.7548 20.7566C26.3157 19.1956 25.1306 15.4797 22.0393 12.3885C18.9481 9.29721 15.1768 8.16748 13.6158 9.72841C12.0549 11.2893 13.2955 14.9498 16.3867 18.0411Z" fill="#FBDD0A"/>
<path fill-rule="evenodd" clip-rule="evenodd" d="M17.2161 9.43422C15.708 8.96553 14.4357 9.08709 13.7054 9.81737C12.9764 10.5463 12.8807 11.7894 13.3768 13.2701C13.8706 14.744 14.9411 16.4157 16.4763 17.9509C18.0109 19.4855 19.696 20.5421 21.1835 21.0223C22.678 21.5047 23.9356 21.396 24.6653 20.6664C25.3949 19.9368 25.5035 18.6791 25.0211 17.1847C24.541 15.6971 23.4844 14.012 21.9498 12.4774C20.4158 10.9434 18.7173 9.90074 17.2161 9.43422ZM17.2913 9.19234C18.8388 9.67327 20.5716 10.7411 22.1289 12.2983C23.6855 13.855 24.7672 15.5734 25.2622 17.1069C25.7549 18.6335 25.6757 20.0142 24.8444 20.8455C24.0131 21.6768 22.6323 21.7561 21.1057 21.2633C19.5723 20.7683 17.8538 19.6867 16.2972 18.13C14.7411 16.574 13.6457 14.8699 13.1366 13.3505C12.6298 11.8379 12.6943 10.4702 13.5263 9.63827C14.3569 8.80762 15.7508 8.71359 17.2913 9.19234Z" fill="#F6CD17"/>
<path d="M16.6686 17.7548C19.4512 20.5375 22.8352 21.6651 24.2268 20.2735C25.6185 18.8818 24.4908 15.4979 21.7081 12.7152C18.9255 9.93256 15.5415 8.80491 14.1499 10.1966C12.7582 11.5882 13.8859 14.9721 16.6686 17.7548Z" fill="#FBDD0A"/>
<path fill-rule="evenodd" clip-rule="evenodd" d="M17.3673 10.0101C16.0139 9.55905 14.8831 9.64187 14.2394 10.2855C13.5958 10.9292 13.513 12.0599 13.964 13.4134C14.4124 14.7589 15.3777 16.2842 16.7581 17.6647C18.1386 19.0451 19.6639 20.0104 21.0094 20.4588C22.3628 20.9098 23.4936 20.827 24.1373 20.1833C24.7809 19.5397 24.8637 18.4089 24.4127 17.0554C23.9643 15.71 22.999 14.1846 21.6186 12.8042C20.2382 11.4237 18.7128 10.4584 17.3673 10.0101ZM17.4474 9.76979C18.8375 10.233 20.3955 11.2229 21.7977 12.6251C23.1999 14.0273 24.1898 15.5853 24.653 16.9754C25.1135 18.3574 25.0644 19.6144 24.3164 20.3624C23.5684 21.1105 22.3114 21.1596 20.9293 20.6991C19.5392 20.2358 17.9812 19.246 16.579 17.8438C15.1768 16.4416 14.1869 14.8836 13.7237 13.4935C13.2632 12.1114 13.3123 10.8544 14.0603 10.1064C14.8083 9.35841 16.0653 9.30923 17.4474 9.76979Z" fill="#F6CD17"/>
<path d="M22.7594 15.3799L23.3732 17.0388L25.0322 17.6527L23.3732 18.2666L22.7594 19.9255L22.1455 18.2666L20.4866 17.6527L22.1455 17.0388L22.7594 15.3799Z" fill="white"/>
<path d="M25.0043 8.9668L25.6181 10.6257L27.2771 11.2396L25.6181 11.8535L25.0043 13.5124L24.3904 11.8535L22.7314 11.2396L24.3904 10.6257L25.0043 8.9668Z" fill="#FBDD0A"/>
<path d="M19.1019 6.04688L19.4829 7.07656L20.5126 7.45758L19.4829 7.8386L19.1019 8.86829L18.7208 7.8386L17.6912 7.45758L18.7208 7.07656L19.1019 6.04688Z" fill="#FBDD0A"/>
</svg>
