<svg width="46" height="35" viewBox="0 0 46 35" fill="none" xmlns="http://www.w3.org/2000/svg">
<mask id="path-1-outside-1_657_1198" maskUnits="userSpaceOnUse" x="0" y="0" width="46" height="35" fill="black">
<rect fill="white" width="46" height="35"/>
<path d="M28.9111 2C37.4688 2.00018 44.4061 8.93748 44.4062 17.4951C44.4062 26.0529 37.4689 32.991 28.9111 32.9912C23.2334 32.9912 18.2698 29.9364 15.5713 25.3818L14.2715 24.625L4.99414 19.2246L2 17.4814L5.00586 15.7598L14.3223 10.4258L15.4795 9.7627C18.1566 5.12278 23.1694 2 28.9111 2Z"/>
</mask>
<path d="M28.9111 2C37.4688 2.00018 44.4061 8.93748 44.4062 17.4951C44.4062 26.0529 37.4689 32.991 28.9111 32.9912C23.2334 32.9912 18.2698 29.9364 15.5713 25.3818L14.2715 24.625L4.99414 19.2246L2 17.4814L5.00586 15.7598L14.3223 10.4258L15.4795 9.7627C18.1566 5.12278 23.1694 2 28.9111 2Z" fill="#4390F9" fill-opacity="0.8"/>
<path d="M28.9111 2L28.9112 0.5H28.9111V2ZM44.4062 17.4951H45.9062V17.4951L44.4062 17.4951ZM28.9111 32.9912V34.4912H28.9112L28.9111 32.9912ZM15.5713 25.3818L16.8618 24.6172C16.7315 24.3972 16.547 24.2142 16.3261 24.0856L15.5713 25.3818ZM14.2715 24.625L15.0263 23.3287L15.0261 23.3286L14.2715 24.625ZM4.99414 19.2246L4.23944 20.5209L4.23952 20.521L4.99414 19.2246ZM2 17.4814L1.25447 16.1798C0.789494 16.4462 0.501902 16.9403 0.500009 17.4761C0.498117 18.012 0.782213 18.5082 1.2453 18.7778L2 17.4814ZM5.00586 15.7598L4.26056 14.458L4.26033 14.4582L5.00586 15.7598ZM14.3223 10.4258L15.0676 11.7275L15.068 11.7273L14.3223 10.4258ZM15.4795 9.7627L16.2252 11.0642C16.4553 10.9324 16.6463 10.742 16.7787 10.5123L15.4795 9.7627ZM28.9111 2L28.9111 3.5C36.6403 3.50016 42.9061 9.76591 42.9062 17.4951L44.4062 17.4951L45.9062 17.4951C45.9061 8.10904 38.2972 0.500192 28.9112 0.5L28.9111 2ZM44.4062 17.4951H42.9062C42.9062 25.2246 36.6403 31.4911 28.9111 31.4912L28.9111 32.9912L28.9112 34.4912C38.2974 34.491 45.9062 26.8812 45.9062 17.4951H44.4062ZM28.9111 32.9912V31.4912C23.7851 31.4912 19.3016 28.7351 16.8618 24.6172L15.5713 25.3818L14.2808 26.1464C17.238 31.1377 22.6816 34.4912 28.9111 34.4912V32.9912ZM15.5713 25.3818L16.3261 24.0856L15.0263 23.3287L14.2715 24.625L13.5167 25.9213L14.8165 26.6781L15.5713 25.3818ZM14.2715 24.625L15.0261 23.3286L5.74876 17.9282L4.99414 19.2246L4.23952 20.521L13.5169 25.9214L14.2715 24.625ZM4.99414 19.2246L5.74884 17.9283L2.7547 16.1851L2 17.4814L1.2453 18.7778L4.23944 20.5209L4.99414 19.2246ZM2 17.4814L2.74553 18.7831L5.75139 17.0614L5.00586 15.7598L4.26033 14.4582L1.25447 16.1798L2 17.4814ZM5.00586 15.7598L5.75115 17.0615L15.0676 11.7275L14.3223 10.4258L13.577 9.12404L4.26056 14.458L5.00586 15.7598ZM14.3223 10.4258L15.068 11.7273L16.2252 11.0642L15.4795 9.7627L14.7337 8.46121L13.5765 9.1243L14.3223 10.4258ZM15.4795 9.7627L16.7787 10.5123C19.1989 6.31772 23.727 3.5 28.9111 3.5V2V0.5C22.6118 0.5 17.1142 3.92785 14.1802 9.01307L15.4795 9.7627Z" fill="#4F4936" mask="url(#path-1-outside-1_657_1198)"/>
</svg>
