<svg width="230" height="55" viewBox="0 0 230 55" fill="none" xmlns="http://www.w3.org/2000/svg">
<g filter="url(#filter0_d_713_2116)">
<path d="M27.169 14.4809C27.169 9.68233 23.2791 5.79235 18.4806 5.79235C13.6822 5.79235 9.79223 9.68233 9.79223 14.4809C9.79223 19.2794 13.6822 23.1694 18.4806 23.1694V28.9617C10.4832 28.9617 3.99998 22.4784 3.99998 14.4809C3.99998 6.4833 10.4832 0 18.4806 0C26.478 0 32.9612 6.4833 32.9612 14.4809C32.9612 22.4784 26.478 28.9617 18.4806 28.9617V23.1694C23.2791 23.1694 27.169 19.2794 27.169 14.4809Z" fill="white"/>
<path d="M9.97986 44.9687L9.88379 45.212C9.3439 46.3904 7.92479 46.9773 6.58588 46.531C5.24697 46.0847 4.46385 44.7637 4.73895 43.497L4.80808 43.2447L11.2728 23.8503L16.4446 25.5742L9.97986 44.9687Z" fill="white"/>
<path d="M28.0201 44.9687L28.1162 45.212C28.6561 46.3904 30.0752 46.9773 31.4141 46.531C32.753 46.0847 33.5361 44.7637 33.261 43.497L33.1919 43.2447L26.7272 23.8503L21.5554 25.5742L28.0201 44.9687Z" fill="white"/>
</g>
<g filter="url(#filter1_d_713_2116)">
<path d="M123.169 14.4809C123.169 9.68233 119.279 5.79235 114.481 5.79235C109.682 5.79235 105.792 9.68233 105.792 14.4809C105.792 19.2794 109.682 23.1694 114.481 23.1694V28.9617C106.483 28.9617 100 22.4784 100 14.4809C100 6.4833 106.483 0 114.481 0C122.478 0 128.961 6.4833 128.961 14.4809C128.961 22.4784 122.478 28.9617 114.481 28.9617V23.1694C119.279 23.1694 123.169 19.2794 123.169 14.4809Z" fill="#F1BC00"/>
<path d="M105.98 44.9687L105.884 45.212C105.344 46.3904 103.925 46.9773 102.586 46.531C101.247 46.0847 100.464 44.7637 100.739 43.497L100.808 43.2447L107.273 23.8503L112.445 25.5742L105.98 44.9687Z" fill="#F1BC00"/>
<path d="M124.02 44.9687L124.116 45.212C124.656 46.3904 126.075 46.9773 127.414 46.531C128.753 46.0847 129.536 44.7637 129.261 43.497L129.192 43.2447L122.727 23.8503L117.555 25.5742L124.02 44.9687Z" fill="#F1BC00"/>
</g>
<g filter="url(#filter2_d_713_2116)">
<path d="M219.169 14.4809C219.169 9.68233 215.279 5.79235 210.481 5.79235C205.682 5.79235 201.792 9.68233 201.792 14.4809C201.792 19.2794 205.682 23.1694 210.481 23.1694V28.9617C202.483 28.9617 196 22.4784 196 14.4809C196 6.4833 202.483 0 210.481 0C218.478 0 224.961 6.4833 224.961 14.4809C224.961 22.4784 218.478 28.9617 210.481 28.9617V23.1694C215.279 23.1694 219.169 19.2794 219.169 14.4809Z" fill="white"/>
<path d="M201.98 44.9687L201.884 45.212C201.344 46.3904 199.925 46.9773 198.586 46.531C197.247 46.0847 196.464 44.7637 196.739 43.497L196.808 43.2447L203.273 23.8503L208.445 25.5742L201.98 44.9687Z" fill="white"/>
<path d="M220.02 44.9687L220.116 45.212C220.656 46.3904 222.075 46.9773 223.414 46.531C224.753 46.0847 225.536 44.7637 225.261 43.497L225.192 43.2447L218.727 23.8503L213.555 25.5742L220.02 44.9687Z" fill="white"/>
</g>
<g filter="url(#filter3_d_713_2116)">
<path d="M62.46 35H59.06L54.32 20.34H57.4L59.6 27.42L60.8 32.12H60.88L62.04 27.42L64.24 20.34H67.24L62.46 35ZM73.2692 35.26C71.0292 35.26 69.1892 34.46 67.7492 32.86L69.7692 30.86C70.7559 32.0067 71.9892 32.58 73.4692 32.58C74.2559 32.58 74.8559 32.4133 75.2692 32.08C75.6826 31.7467 75.8892 31.2867 75.8892 30.7C75.8892 30.2333 75.7492 29.86 75.4692 29.58C75.2026 29.3 74.7359 29.1133 74.0692 29.02L72.6492 28.82C69.6759 28.4067 68.1892 26.96 68.1892 24.48C68.1892 23.6133 68.4092 22.8467 68.8492 22.18C69.2892 21.5133 69.9159 21 70.7292 20.64C71.5559 20.2667 72.5226 20.08 73.6292 20.08C75.7626 20.08 77.4426 20.78 78.6692 22.18L76.6492 24.18C76.2626 23.7267 75.8092 23.38 75.2892 23.14C74.7826 22.8867 74.1692 22.76 73.4492 22.76C72.7159 22.76 72.1626 22.8933 71.7892 23.16C71.4159 23.4267 71.2292 23.8067 71.2292 24.3C71.2292 24.8067 71.3692 25.1867 71.6492 25.44C71.9426 25.68 72.4226 25.8533 73.0892 25.96L74.5092 26.2C76.0159 26.4667 77.1292 26.9467 77.8492 27.64C78.5692 28.3333 78.9292 29.2933 78.9292 30.52C78.9292 31.4533 78.7026 32.28 78.2492 33C77.8092 33.7067 77.1626 34.26 76.3092 34.66C75.4559 35.06 74.4426 35.26 73.2692 35.26Z" fill="#E13535"/>
</g>
<g filter="url(#filter4_d_713_2116)">
<path d="M158.46 35H155.06L150.32 20.34H153.4L155.6 27.42L156.8 32.12H156.88L158.04 27.42L160.24 20.34H163.24L158.46 35ZM169.269 35.26C167.029 35.26 165.189 34.46 163.749 32.86L165.769 30.86C166.756 32.0067 167.989 32.58 169.469 32.58C170.256 32.58 170.856 32.4133 171.269 32.08C171.683 31.7467 171.889 31.2867 171.889 30.7C171.889 30.2333 171.749 29.86 171.469 29.58C171.203 29.3 170.736 29.1133 170.069 29.02L168.649 28.82C165.676 28.4067 164.189 26.96 164.189 24.48C164.189 23.6133 164.409 22.8467 164.849 22.18C165.289 21.5133 165.916 21 166.729 20.64C167.556 20.2667 168.523 20.08 169.629 20.08C171.763 20.08 173.443 20.78 174.669 22.18L172.649 24.18C172.263 23.7267 171.809 23.38 171.289 23.14C170.783 22.8867 170.169 22.76 169.449 22.76C168.716 22.76 168.163 22.8933 167.789 23.16C167.416 23.4267 167.229 23.8067 167.229 24.3C167.229 24.8067 167.369 25.1867 167.649 25.44C167.943 25.68 168.423 25.8533 169.089 25.96L170.509 26.2C172.016 26.4667 173.129 26.9467 173.849 27.64C174.569 28.3333 174.929 29.2933 174.929 30.52C174.929 31.4533 174.703 32.28 174.249 33C173.809 33.7067 173.163 34.26 172.309 34.66C171.456 35.06 170.443 35.26 169.269 35.26Z" fill="#E13535"/>
</g>
<defs>
<filter id="filter0_d_713_2116" x="-1.52588e-05" y="0" width="37.3158" height="54.6797" filterUnits="userSpaceOnUse" color-interpolation-filters="sRGB">
<feFlood flood-opacity="0" result="BackgroundImageFix"/>
<feColorMatrix in="SourceAlpha" type="matrix" values="0 0 0 0 0 0 0 0 0 0 0 0 0 0 0 0 0 0 127 0" result="hardAlpha"/>
<feOffset dy="4"/>
<feGaussianBlur stdDeviation="2"/>
<feComposite in2="hardAlpha" operator="out"/>
<feColorMatrix type="matrix" values="0 0 0 0 0 0 0 0 0 0 0 0 0 0 0 0 0 0 0.25 0"/>
<feBlend mode="normal" in2="BackgroundImageFix" result="effect1_dropShadow_713_2116"/>
<feBlend mode="normal" in="SourceGraphic" in2="effect1_dropShadow_713_2116" result="shape"/>
</filter>
<filter id="filter1_d_713_2116" x="96" y="0" width="37.3159" height="54.6797" filterUnits="userSpaceOnUse" color-interpolation-filters="sRGB">
<feFlood flood-opacity="0" result="BackgroundImageFix"/>
<feColorMatrix in="SourceAlpha" type="matrix" values="0 0 0 0 0 0 0 0 0 0 0 0 0 0 0 0 0 0 127 0" result="hardAlpha"/>
<feOffset dy="4"/>
<feGaussianBlur stdDeviation="2"/>
<feComposite in2="hardAlpha" operator="out"/>
<feColorMatrix type="matrix" values="0 0 0 0 0 0 0 0 0 0 0 0 0 0 0 0 0 0 0.25 0"/>
<feBlend mode="normal" in2="BackgroundImageFix" result="effect1_dropShadow_713_2116"/>
<feBlend mode="normal" in="SourceGraphic" in2="effect1_dropShadow_713_2116" result="shape"/>
</filter>
<filter id="filter2_d_713_2116" x="192" y="0" width="37.3158" height="54.6797" filterUnits="userSpaceOnUse" color-interpolation-filters="sRGB">
<feFlood flood-opacity="0" result="BackgroundImageFix"/>
<feColorMatrix in="SourceAlpha" type="matrix" values="0 0 0 0 0 0 0 0 0 0 0 0 0 0 0 0 0 0 127 0" result="hardAlpha"/>
<feOffset dy="4"/>
<feGaussianBlur stdDeviation="2"/>
<feComposite in2="hardAlpha" operator="out"/>
<feColorMatrix type="matrix" values="0 0 0 0 0 0 0 0 0 0 0 0 0 0 0 0 0 0 0.25 0"/>
<feBlend mode="normal" in2="BackgroundImageFix" result="effect1_dropShadow_713_2116"/>
<feBlend mode="normal" in="SourceGraphic" in2="effect1_dropShadow_713_2116" result="shape"/>
</filter>
<filter id="filter3_d_713_2116" x="50.32" y="20.0801" width="32.6092" height="23.1797" filterUnits="userSpaceOnUse" color-interpolation-filters="sRGB">
<feFlood flood-opacity="0" result="BackgroundImageFix"/>
<feColorMatrix in="SourceAlpha" type="matrix" values="0 0 0 0 0 0 0 0 0 0 0 0 0 0 0 0 0 0 127 0" result="hardAlpha"/>
<feOffset dy="4"/>
<feGaussianBlur stdDeviation="2"/>
<feComposite in2="hardAlpha" operator="out"/>
<feColorMatrix type="matrix" values="0 0 0 0 0 0 0 0 0 0 0 0 0 0 0 0 0 0 0.25 0"/>
<feBlend mode="normal" in2="BackgroundImageFix" result="effect1_dropShadow_713_2116"/>
<feBlend mode="normal" in="SourceGraphic" in2="effect1_dropShadow_713_2116" result="shape"/>
</filter>
<filter id="filter4_d_713_2116" x="146.32" y="20.0801" width="32.6092" height="23.1797" filterUnits="userSpaceOnUse" color-interpolation-filters="sRGB">
<feFlood flood-opacity="0" result="BackgroundImageFix"/>
<feColorMatrix in="SourceAlpha" type="matrix" values="0 0 0 0 0 0 0 0 0 0 0 0 0 0 0 0 0 0 127 0" result="hardAlpha"/>
<feOffset dy="4"/>
<feGaussianBlur stdDeviation="2"/>
<feComposite in2="hardAlpha" operator="out"/>
<feColorMatrix type="matrix" values="0 0 0 0 0 0 0 0 0 0 0 0 0 0 0 0 0 0 0.25 0"/>
<feBlend mode="normal" in2="BackgroundImageFix" result="effect1_dropShadow_713_2116"/>
<feBlend mode="normal" in="SourceGraphic" in2="effect1_dropShadow_713_2116" result="shape"/>
</filter>
</defs>
</svg>
