<svg width="41" height="41" viewBox="0 0 41 41" fill="none" xmlns="http://www.w3.org/2000/svg">
<path d="M35.1242 13.0934C35.1242 9.07177 31.864 5.81159 27.8423 5.81159C23.8207 5.81159 20.5605 9.07177 20.5605 13.0934C20.5605 17.1151 23.8207 20.3753 27.8423 20.3753V25.2298C21.1396 25.2298 15.7059 19.7962 15.7059 13.0934C15.7059 6.39068 21.1396 0.957031 27.8423 0.957031C34.5451 0.957031 39.9787 6.39068 39.9787 13.0934C39.9787 19.7962 34.5451 25.2298 27.8423 25.2298V20.3753C31.864 20.3753 35.1242 17.1151 35.1242 13.0934Z" fill="#98BA87"/>
<path d="M20.7178 38.6461L20.6373 38.85C20.1848 39.8376 18.9954 40.3295 17.8732 39.9555C16.7511 39.5814 16.0947 38.4742 16.3253 37.4127L16.3832 37.2012L21.8014 20.9468L26.1359 22.3916L20.7178 38.6461Z" fill="#98BA87"/>
<path d="M35.8375 38.6461L35.918 38.85C36.3705 39.8376 37.5599 40.3295 38.6821 39.9555C39.8042 39.5814 40.4606 38.4742 40.23 37.4127L40.1721 37.2012L34.7539 20.9468L30.4194 22.3916L35.8375 38.6461Z" fill="#98BA87"/>
<path d="M25.1295 13.0934C25.1295 9.07177 21.8693 5.81159 17.8476 5.81159C13.826 5.81159 10.5658 9.07177 10.5658 13.0934C10.5658 17.1151 13.826 20.3753 17.8476 20.3753V25.2298C11.1449 25.2298 5.71124 19.7962 5.71124 13.0934C5.71124 6.39068 11.1449 0.957031 17.8476 0.957031C24.5504 0.957031 29.984 6.39068 29.984 13.0934C29.984 19.7962 24.5504 25.2298 17.8476 25.2298V20.3753C21.8693 20.3753 25.1295 17.1151 25.1295 13.0934Z" fill="white"/>
<path d="M10.7231 38.6461L10.6426 38.85C10.1901 39.8376 9.0007 40.3295 7.87854 39.9555C6.75639 39.5814 6.10005 38.4742 6.33061 37.4127L6.38855 37.2012L11.8067 20.9468L16.1412 22.3916L10.7231 38.6461Z" fill="white"/>
<path d="M25.8428 38.6461L25.9233 38.85C26.3758 39.8376 27.5652 40.3295 28.6873 39.9555C29.8095 39.5814 30.4658 38.4742 30.2352 37.4127L30.1773 37.2012L24.7591 20.9468L20.4246 22.3916L25.8428 38.6461Z" fill="white"/>
<rect x="7.13904" y="3.81348" width="17.1337" height="37.1231" fill="white"/>
<path d="M19.4182 13.0934C19.4182 9.07177 16.158 5.81159 12.1364 5.81159C8.11474 5.81159 4.85456 9.07177 4.85456 13.0934C4.85456 17.1151 8.11474 20.3753 12.1364 20.3753V25.2298C5.43365 25.2298 0 19.7962 0 13.0934C0 6.39068 5.43365 0.957031 12.1364 0.957031C18.8391 0.957031 24.2728 6.39068 24.2728 13.0934C24.2728 19.7962 18.8391 25.2298 12.1364 25.2298V20.3753C16.158 20.3753 19.4182 17.1151 19.4182 13.0934Z" fill="#98BA87"/>
<path d="M5.01183 38.6461L4.93132 38.85C4.47883 39.8376 3.28946 40.3295 2.1673 39.9555C1.04514 39.5814 0.388803 38.4742 0.619369 37.4127L0.677307 37.2012L6.09547 20.9468L10.43 22.3916L5.01183 38.6461Z" fill="#98BA87"/>
<path d="M20.1315 38.6461L20.2121 38.85C20.6645 39.8376 21.8539 40.3295 22.9761 39.9555C24.0982 39.5814 24.7546 38.4742 24.524 37.4127L24.4661 37.2012L19.0479 20.9468L14.7134 22.3916L20.1315 38.6461Z" fill="#98BA87"/>
</svg>
